Unna-Regular.ufo
<glyph name="exclam" format="1">
  <advance width="269"/>
  <unicode hex="0021"/>
  <outline>
    <contour>
      <point x="118" y="637"/>
      <point x="100" y="614"/>
      <point x="100" y="583" type="curve" smooth="yes"/>
      <point x="100" y="565"/>
      <point x="102" y="547"/>
      <point x="106" y="520" type="curve" smooth="yes"/>
      <point x="119" y="428" type="line" smooth="yes"/>
      <point x="128" y="363"/>
      <point x="143" y="289"/>
      <point x="143" y="217" type="curve" smooth="yes"/>
      <point x="143" y="209"/>
      <point x="147" y="201"/>
      <point x="155" y="201" type="curve" smooth="yes"/>
      <point x="162" y="201"/>
      <point x="166" y="209"/>
      <point x="166" y="217" type="curve" smooth="yes"/>
      <point x="166" y="289"/>
      <point x="181" y="363"/>
      <point x="190" y="428" type="curve" smooth="yes"/>
      <point x="203" y="520" type="line" smooth="yes"/>
      <point x="207" y="547"/>
      <point x="209" y="565"/>
      <point x="209" y="583" type="curve" smooth="yes"/>
      <point x="209" y="614"/>
      <point x="191" y="637"/>
      <point x="154" y="637" type="curve" smooth="yes"/>
    </contour>
    <contour>
      <point x="119" y="105"/>
      <point x="90" y="80"/>
      <point x="90" y="48" type="curve" smooth="yes"/>
      <point x="90" y="16"/>
      <point x="121" y="-10"/>
      <point x="154" y="-10" type="curve" smooth="yes"/>
      <point x="189" y="-10"/>
      <point x="219" y="16"/>
      <point x="219" y="47" type="curve" smooth="yes"/>
      <point x="219" y="79"/>
      <point x="191" y="105"/>
      <point x="155" y="105" type="curve" smooth="yes"/>
    </contour>
  </outline>
</glyph>
<glyph name="numbersign" format="1">
  <advance width="505"/>
  <unicode hex="0023"/>
  <outline>
    <contour>
      <point x="117" y="194" type="line"/>
      <point x="56" y="-9" type="line"/>
      <point x="96" y="-9" type="line"/>
      <point x="157" y="194" type="line"/>
      <point x="271" y="194" type="line"/>
      <point x="210" y="-9" type="line"/>
      <point x="250" y="-9" type="line"/>
      <point x="311" y="194" type="line"/>
      <point x="412" y="194" type="line"/>
      <point x="424" y="234" type="line"/>
      <point x="323" y="234" type="line"/>
      <point x="374" y="405" type="line"/>
      <point x="476" y="405" type="line"/>
      <point x="487" y="445" type="line"/>
      <point x="386" y="445" type="line"/>
      <point x="444" y="639" type="line"/>
      <point x="404" y="639" type="line"/>
      <point x="345" y="445" type="line"/>
      <point x="231" y="445" type="line"/>
      <point x="290" y="639" type="line"/>
      <point x="250" y="639" type="line"/>
      <point x="191" y="445" type="line"/>
      <point x="91" y="445" type="line"/>
      <point x="80" y="405" type="line"/>
      <point x="180" y="405" type="line"/>
      <point x="128" y="234" type="line"/>
      <point x="29" y="234" type="line"/>
      <point x="18" y="194" type="line"/>
    </contour>
    <contour>
      <point x="220" y="405" type="line"/>
      <point x="334" y="405" type="line"/>
      <point x="283" y="234" type="line"/>
      <point x="168" y="234" type="line"/>
    </contour>
  </outline>
</glyph>
<glyph name="dollar" format="1">
  <advance width="447"/>
  <unicode hex="0024"/>
  <outline>
    <contour>
      <point x="206" y="129" type="line"/>
      <point x="206" y="-95" type="line"/>
      <point x="243" y="-95" type="line"/>
      <point x="243" y="129" type="line"/>
    </contour>
    <contour>
      <point x="243" y="458" type="line"/>
      <point x="243" y="647" type="line"/>
      <point x="206" y="647" type="line"/>
      <point x="206" y="462" type="line"/>
    </contour>
    <contour>
      <point x="88" y="138"/>
      <point x="96" y="140"/>
      <point x="107" y="140" type="curve" smooth="yes"/>
      <point x="113" y="140"/>
      <point x="120" y="139"/>
      <point x="130" y="137" type="curve"/>
      <point x="180" y="123"/>
      <point x="200" y="119"/>
      <point x="224" y="119" type="curve" smooth="yes"/>
      <point x="305" y="119"/>
      <point x="364" y="159"/>
      <point x="364" y="232" type="curve" smooth="yes"/>
      <point x="364" y="279"/>
      <point x="346" y="313"/>
      <point x="278" y="331" type="curve" smooth="yes"/>
      <point x="209" y="349" type="line" smooth="yes"/>
      <point x="177" y="357"/>
      <point x="160" y="373"/>
      <point x="160" y="397" type="curve" smooth="yes"/>
      <point x="160" y="425"/>
      <point x="183" y="447"/>
      <point x="222" y="447" type="curve" smooth="yes"/>
      <point x="285" y="447"/>
      <point x="318" y="407"/>
      <point x="318" y="369" type="curve"/>
      <point x="339" y="369" type="line"/>
      <point x="344" y="460" type="line"/>
      <point x="337" y="456"/>
      <point x="327" y="453"/>
      <point x="320" y="453" type="curve" smooth="yes"/>
      <point x="292" y="453"/>
      <point x="263" y="471"/>
      <point x="218" y="471" type="curve" smooth="yes"/>
      <point x="136" y="471"/>
      <point x="89" y="427"/>
      <point x="89" y="366" type="curve" smooth="yes"/>
      <point x="89" y="318"/>
      <point x="117" y="284"/>
      <point x="169" y="270" type="curve" smooth="yes"/>
      <point x="239" y="251" type="line" smooth="yes"/>
      <point x="281" y="241"/>
      <point x="295" y="224"/>
      <point x="295" y="198" type="curve" smooth="yes"/>
      <point x="295" y="164"/>
      <point x="270" y="143"/>
      <point x="230" y="143" type="curve" smooth="yes"/>
      <point x="166" y="143"/>
      <point x="111" y="184"/>
      <point x="111" y="242" type="curve"/>
      <point x="87" y="241" type="line"/>
      <point x="83" y="135" type="line"/>
    </contour>
  </outline>
</glyph>
<glyph name="plus" format="1">
  <advance width="460"/>
  <unicode hex="002B"/>
  <outline>
    <contour>
      <point x="206" y="259" type="line"/>
      <point x="206" y="73" type="line"/>
      <point x="255" y="73" type="line"/>
      <point x="255" y="259" type="line"/>
      <point x="440" y="259" type="line"/>
      <point x="440" y="303" type="line"/>
      <point x="255" y="303" type="line"/>
      <point x="255" y="488" type="line"/>
      <point x="206" y="488" type="line"/>
      <point x="206" y="303" type="line"/>
      <point x="20" y="303" type="line"/>
      <point x="20" y="259" type="line"/>
    </contour>
  </outline>
</glyph>
<glyph name="one" format="1">
  <advance width="387"/>
  <unicode hex="0031"/>
  <outline>
    <contour>
      <point x="70" y="479" type="line"/>
      <point x="144" y="512" type="line" smooth="yes"/>
      <point x="156" y="518"/>
      <point x="165" y="509"/>
      <point x="165" y="497" type="curve" smooth="yes"/>
      <point x="165" y="43" type="line" smooth="yes"/>
      <point x="165" y="30"/>
      <point x="158" y="23"/>
      <point x="144" y="23" type="curve" smooth="yes"/>
      <point x="78" y="24" type="line"/>
      <point x="78" y="0" type="line"/>
      <point x="326" y="0" type="line"/>
      <point x="326" y="24" type="line"/>
      <point x="261" y="23" type="line" smooth="yes"/>
      <point x="248" y="23"/>
      <point x="242" y="30"/>
      <point x="242" y="43" type="curve" smooth="yes"/>
      <point x="242" y="617" type="line"/>
      <point x="225" y="617" type="line"/>
      <point x="211" y="603"/>
      <point x="196" y="589"/>
      <point x="179" y="576" type="curve" smooth="yes"/>
      <point x="151" y="554"/>
      <point x="111" y="527"/>
      <point x="62" y="513" type="curve"/>
    </contour>
  </outline>
</glyph>
<glyph name="four" format="1">
  <advance width="470"/>
  <unicode hex="0034"/>
  <outline>
    <contour>
      <point x="339" y="604" type="line"/>
      <point x="318" y="576" type="line"/>
      <point x="302" y="554" type="line"/>
      <point x="76" y="276" type="line"/>
      <point x="47" y="245" type="line"/>
      <point x="37" y="233"/>
      <point x="26" y="223"/>
      <point x="17" y="215" type="curve"/>
      <point x="17" y="155" type="line"/>
      <point x="286" y="155" type="line"/>
      <point x="286" y="43" type="line" smooth="yes"/>
      <point x="286" y="30"/>
      <point x="281" y="23"/>
      <point x="268" y="23" type="curve" smooth="yes"/>
      <point x="201" y="24" type="line"/>
      <point x="201" y="0" type="line"/>
      <point x="429" y="0" type="line"/>
      <point x="429" y="24" type="line"/>
      <point x="383" y="23" type="line" smooth="yes"/>
      <point x="371" y="23"/>
      <point x="364" y="30"/>
      <point x="364" y="43" type="curve" smooth="yes"/>
      <point x="364" y="155" type="line"/>
      <point x="444" y="155" type="line"/>
      <point x="444" y="224" type="line"/>
      <point x="364" y="224" type="line"/>
      <point x="364" y="604" type="line"/>
    </contour>
    <contour>
      <point x="286" y="224" type="line"/>
      <point x="72" y="224" type="line"/>
      <point x="286" y="488" type="line"/>
    </contour>
  </outline>
</glyph>
<glyph name="seven" format="1">
  <advance width="427"/>
  <unicode hex="0037"/>
  <outline>
    <contour>
      <point x="45" y="581"/>
      <point x="35" y="510"/>
      <point x="30" y="472" type="curve"/>
      <point x="66" y="472" type="line"/>
      <point x="72" y="514"/>
      <point x="97" y="530"/>
      <point x="155" y="530" type="curve" smooth="yes"/>
      <point x="390" y="530" type="line"/>
      <point x="390" y="561" type="line"/>
      <point x="171" y="331"/>
      <point x="143" y="152"/>
      <point x="140" y="0" type="curve"/>
      <point x="234" y="0" type="line"/>
      <point x="229" y="55"/>
      <point x="230" y="66"/>
      <point x="230" y="75" type="curve" smooth="yes"/>
      <point x="230" y="271"/>
      <point x="313" y="435"/>
      <point x="421" y="555" type="curve"/>
      <point x="417" y="597" type="line"/>
      <point x="164" y="597" type="line" smooth="yes"/>
      <point x="103" y="597"/>
      <point x="58" y="597"/>
      <point x="45" y="600" type="curve"/>
    </contour>
  </outline>
</glyph>
<glyph name="eight" format="1">
  <advance width="493"/>
  <unicode hex="0038"/>
  <outline>
    <contour>
      <point x="363" y="338"/>
      <point x="448" y="387"/>
      <point x="448" y="476" type="curve" smooth="yes"/>
      <point x="448" y="563"/>
      <point x="367" y="607"/>
      <point x="266" y="607" type="curve" smooth="yes"/>
      <point x="153" y="607"/>
      <point x="63" y="549"/>
      <point x="63" y="456" type="curve" smooth="yes"/>
      <point x="63" y="384"/>
      <point x="117" y="341"/>
      <point x="195" y="298" type="curve" smooth="yes"/>
      <point x="270" y="257"/>
      <point x="369" y="211"/>
      <point x="369" y="121" type="curve" smooth="yes"/>
      <point x="369" y="53"/>
      <point x="313" y="17"/>
      <point x="240" y="17" type="curve" smooth="yes"/>
      <point x="153" y="17"/>
      <point x="103" y="68"/>
      <point x="103" y="134" type="curve" smooth="yes"/>
      <point x="103" y="202"/>
      <point x="155" y="268"/>
      <point x="214" y="294" type="curve"/>
      <point x="189" y="307" type="line"/>
      <point x="105" y="277"/>
      <point x="37" y="212"/>
      <point x="37" y="130" type="curve" smooth="yes"/>
      <point x="37" y="31"/>
      <point x="136" y="-10"/>
      <point x="234" y="-10" type="curve" smooth="yes"/>
      <point x="353" y="-10"/>
      <point x="463" y="55"/>
      <point x="463" y="155" type="curve" smooth="yes"/>
      <point x="463" y="243"/>
      <point x="378" y="290"/>
      <point x="297" y="335" type="curve" smooth="yes"/>
      <point x="224" y="376"/>
      <point x="155" y="413"/>
      <point x="155" y="484" type="curve" smooth="yes"/>
      <point x="155" y="543"/>
      <point x="201" y="580"/>
      <point x="272" y="580" type="curve" smooth="yes"/>
      <point x="341" y="580"/>
      <point x="385" y="545"/>
      <point x="385" y="475" type="curve" smooth="yes"/>
      <point x="385" y="418"/>
      <point x="356" y="369"/>
      <point x="281" y="337" type="curve"/>
      <point x="304" y="325" type="line"/>
    </contour>
  </outline>
</glyph>
<glyph name="greater" format="1">
  <advance width="460"/>
  <unicode hex="003E"/>
  <outline>
    <contour>
      <point x="406" y="207" type="line"/>
      <point x="406" y="231" type="line"/>
      <point x="54" y="442" type="line"/>
      <point x="54" y="393" type="line"/>
      <point x="310" y="239" type="line"/>
      <point x="353" y="218" type="line"/>
      <point x="310" y="198" type="line"/>
      <point x="54" y="43" type="line"/>
      <point x="54" y="-5" type="line"/>
    </contour>
  </outline>
</glyph>
<glyph name="at" format="1">
  <advance width="741"/>
  <unicode hex="0040"/>
  <outline>
    <contour>
      <point x="26" y="-21"/>
      <point x="164" y="-145"/>
      <point x="376" y="-145" type="curve" smooth="yes"/>
      <point x="505" y="-145"/>
      <point x="601" y="-109"/>
      <point x="694" y="-13" type="curve"/>
      <point x="676" y="9" type="line"/>
      <point x="590" y="-79"/>
      <point x="504" y="-116"/>
      <point x="385" y="-116" type="curve" smooth="yes"/>
      <point x="198" y="-116"/>
      <point x="82" y="1"/>
      <point x="82" y="173" type="curve" smooth="yes"/>
      <point x="82" y="356"/>
      <point x="197" y="567"/>
      <point x="421" y="567" type="curve" smooth="yes"/>
      <point x="569" y="567"/>
      <point x="683" y="448"/>
      <point x="683" y="305" type="curve" smooth="yes"/>
      <point x="683" y="192"/>
      <point x="595" y="75"/>
      <point x="541" y="75" type="curve" smooth="yes"/>
      <point x="532" y="75"/>
      <point x="528" y="81"/>
      <point x="528" y="92" type="curve" smooth="yes"/>
      <point x="528" y="128"/>
      <point x="548" y="230"/>
      <point x="570" y="330" type="curve"/>
      <point x="593" y="428" type="line"/>
      <point x="501" y="411" type="line"/>
      <point x="496" y="391" type="line"/>
      <point x="483" y="418"/>
      <point x="468" y="430"/>
      <point x="439" y="430" type="curve" smooth="yes"/>
      <point x="297" y="430"/>
      <point x="172" y="252"/>
      <point x="172" y="112" type="curve" smooth="yes"/>
      <point x="172" y="36"/>
      <point x="205" y="-10"/>
      <point x="264" y="-10" type="curve" smooth="yes"/>
      <point x="327" y="-10"/>
      <point x="382" y="41"/>
      <point x="459" y="187" type="curve"/>
      <point x="444" y="123"/>
      <point x="435" y="65"/>
      <point x="435" y="36" type="curve" smooth="yes"/>
      <point x="435" y="5"/>
      <point x="440" y="-10"/>
      <point x="459" y="-10" type="curve" smooth="yes"/>
      <point x="489" y="-10"/>
      <point x="511" y="-1"/>
      <point x="561" y="36" type="curve" smooth="yes"/>
      <point x="657" y="105"/>
      <point x="714" y="206"/>
      <point x="714" y="306" type="curve" smooth="yes"/>
      <point x="714" y="469"/>
      <point x="589" y="596"/>
      <point x="421" y="596" type="curve" smooth="yes"/>
      <point x="194" y="596"/>
      <point x="26" y="393"/>
      <point x="26" y="178" type="curve" smooth="yes"/>
    </contour>
    <contour>
      <point x="261" y="160"/>
      <point x="269" y="199"/>
      <point x="284" y="241" type="curve" smooth="yes"/>
      <point x="319" y="336"/>
      <point x="376" y="400"/>
      <point x="441" y="400" type="curve" smooth="yes"/>
      <point x="466" y="400"/>
      <point x="484" y="376"/>
      <point x="484" y="348" type="curve" smooth="yes"/>
      <point x="484" y="230"/>
      <point x="350" y="45"/>
      <point x="311" y="45" type="curve" smooth="yes"/>
      <point x="278" y="45"/>
      <point x="261" y="71"/>
      <point x="261" y="123" type="curve" smooth="yes"/>
    </contour>
  </outline>
</glyph>
<glyph name="A" format="1">
  <advance width="601"/>
  <unicode hex="0041"/>
  <outline>
    <contour>
      <point x="373" y="236" type="line"/>
      <point x="147" y="236" type="line"/>
      <point x="137" y="208" type="line"/>
      <point x="383" y="208" type="line"/>
    </contour>
    <contour>
      <point x="308" y="607" type="line"/>
      <point x="282" y="607" type="line"/>
      <point x="73" y="104" type="line" smooth="yes"/>
      <point x="63" y="79"/>
      <point x="53" y="60"/>
      <point x="43" y="46" type="curve" smooth="yes"/>
      <point x="34" y="33"/>
      <point x="23" y="27"/>
      <point x="10" y="27" type="curve" smooth="yes"/>
      <point x="6" y="27" type="line"/>
      <point x="-20" y="29" type="line"/>
      <point x="-20" y="0" type="line"/>
      <point x="153" y="0" type="line"/>
      <point x="153" y="29" type="line"/>
      <point x="105" y="26" type="line"/>
      <point x="72" y="23"/>
      <point x="82" y="61"/>
      <point x="97" y="96" type="curve" smooth="yes"/>
      <point x="263" y="498" type="line"/>
    </contour>
    <contour>
      <point x="255" y="498" type="line"/>
      <point x="425" y="90" type="line" smooth="yes"/>
      <point x="438" y="59"/>
      <point x="445" y="24"/>
      <point x="405" y="27" type="curve"/>
      <point x="356" y="29" type="line"/>
      <point x="356" y="0" type="line"/>
      <point x="621" y="0" type="line"/>
      <point x="621" y="29" type="line"/>
      <point x="588" y="27" type="line"/>
      <point x="583" y="27" type="line" smooth="yes"/>
      <point x="568" y="27"/>
      <point x="557" y="33"/>
      <point x="548" y="45" type="curve" smooth="yes"/>
      <point x="539" y="58"/>
      <point x="529" y="77"/>
      <point x="519" y="102" type="curve" smooth="yes"/>
      <point x="308" y="607" type="line"/>
    </contour>
    <contour>
      <point x="561" y="14" type="move" name="ogonek"/>
    </contour>
    <contour>
      <point x="301" y="598" type="move" name="top"/>
    </contour>
  </outline>
</glyph>
<glyph name="B" format="1">
  <advance width="573"/>
  <unicode hex="0042"/>
  <outline>
    <contour>
      <point x="50" y="597" type="line"/>
      <point x="50" y="567" type="line"/>
      <point x="101" y="569" type="line" smooth="yes"/>
      <point x="112" y="569"/>
      <point x="118" y="558"/>
      <point x="118" y="549" type="curve" smooth="yes"/>
      <point x="118" y="49" type="line" smooth="yes"/>
      <point x="118" y="34"/>
      <point x="112" y="27"/>
      <point x="100" y="27" type="curve" smooth="yes"/>
      <point x="50" y="29" type="line"/>
      <point x="50" y="0" type="line"/>
      <point x="312" y="0" type="line" smooth="yes"/>
      <point x="459" y="0"/>
      <point x="533" y="54"/>
      <point x="533" y="162" type="curve" smooth="yes"/>
      <point x="533" y="251"/>
      <point x="457" y="317"/>
      <point x="362" y="317" type="curve"/>
      <point x="445" y="332"/>
      <point x="500" y="383"/>
      <point x="500" y="454" type="curve" smooth="yes"/>
      <point x="500" y="549"/>
      <point x="439" y="597"/>
      <point x="327" y="597" type="curve" smooth="yes"/>
    </contour>
    <contour>
      <point x="394" y="299"/>
      <point x="436" y="254"/>
      <point x="436" y="162" type="curve" smooth="yes"/>
      <point x="436" y="78"/>
      <point x="379" y="28"/>
      <point x="295" y="28" type="curve" smooth="yes"/>
      <point x="225" y="28" type="line" smooth="yes"/>
      <point x="216" y="28"/>
      <point x="211" y="32"/>
      <point x="211" y="41" type="curve" smooth="yes"/>
      <point x="211" y="299" type="line"/>
      <point x="314" y="299" type="line" smooth="yes"/>
    </contour>
    <contour>
      <point x="360" y="569"/>
      <point x="405" y="525"/>
      <point x="405" y="453" type="curve" smooth="yes"/>
      <point x="405" y="369"/>
      <point x="366" y="327"/>
      <point x="287" y="327" type="curve" smooth="yes"/>
      <point x="211" y="327" type="line"/>
      <point x="211" y="557" type="line"/>
      <point x="212" y="565"/>
      <point x="216" y="569"/>
      <point x="223" y="569" type="curve" smooth="yes"/>
      <point x="281" y="569" type="line" smooth="yes"/>
    </contour>
  </outline>
</glyph>
<glyph name="F" format="1">
  <advance width="529"/>
  <unicode hex="0046"/>
  <outline>
    <contour>
      <point x="272" y="0" type="line"/>
      <point x="272" y="30" type="line"/>
      <point x="220" y="27" type="line"/>
      <point x="209" y="27"/>
      <point x="201" y="36"/>
      <point x="201" y="48" type="curve" smooth="yes"/>
      <point x="201" y="287" type="line"/>
      <point x="276" y="287" type="line" smooth="yes"/>
      <point x="323" y="287"/>
      <point x="355" y="248"/>
      <point x="355" y="187" type="curve"/>
      <point x="382" y="187" type="line"/>
      <point x="382" y="417" type="line"/>
      <point x="355" y="417" type="line"/>
      <point x="355" y="353"/>
      <point x="323" y="315"/>
      <point x="276" y="315" type="curve" smooth="yes"/>
      <point x="201" y="315" type="line"/>
      <point x="201" y="556" type="line" smooth="yes"/>
      <point x="201" y="565"/>
      <point x="205" y="569"/>
      <point x="213" y="569" type="curve" smooth="yes"/>
      <point x="330" y="569" type="line" smooth="yes"/>
      <point x="429" y="569"/>
      <point x="472" y="531"/>
      <point x="472" y="443" type="curve"/>
      <point x="499" y="443" type="line"/>
      <point x="499" y="598" type="line"/>
      <point x="496" y="597"/>
      <point x="491" y="597"/>
      <point x="484" y="597" type="curve" smooth="yes"/>
      <point x="464" y="597" type="line"/>
      <point x="50" y="597" type="line"/>
      <point x="50" y="567" type="line"/>
      <point x="89" y="569" type="line"/>
      <point x="91" y="569" type="line" smooth="yes"/>
      <point x="102" y="569"/>
      <point x="108" y="562"/>
      <point x="108" y="548" type="curve" smooth="yes"/>
      <point x="108" y="49" type="line" smooth="yes"/>
      <point x="108" y="34"/>
      <point x="102" y="27"/>
      <point x="90" y="27" type="curve"/>
      <point x="50" y="30" type="line"/>
      <point x="50" y="0" type="line"/>
    </contour>
  </outline>
</glyph>
<glyph name="J" format="1">
  <advance width="451"/>
  <unicode hex="004A"/>
  <outline>
    <contour>
      <point x="31" y="6"/>
      <point x="48" y="5"/>
      <point x="59" y="5" type="curve" smooth="yes"/>
      <point x="87" y="5"/>
      <point x="125" y="-10"/>
      <point x="181" y="-10" type="curve" smooth="yes"/>
      <point x="290" y="-10"/>
      <point x="348" y="51"/>
      <point x="348" y="179" type="curve" smooth="yes"/>
      <point x="348" y="549" type="line" smooth="yes"/>
      <point x="348" y="560"/>
      <point x="355" y="570"/>
      <point x="368" y="569" type="curve" smooth="yes"/>
      <point x="406" y="567" type="line"/>
      <point x="406" y="597" type="line"/>
      <point x="167" y="597" type="line"/>
      <point x="167" y="567" type="line"/>
      <point x="236" y="569" type="line"/>
      <point x="247" y="570"/>
      <point x="255" y="560"/>
      <point x="255" y="548" type="curve" smooth="yes"/>
      <point x="255" y="179" type="line" smooth="yes"/>
      <point x="255" y="59"/>
      <point x="229" y="16"/>
      <point x="165" y="16" type="curve" smooth="yes"/>
      <point x="82" y="16"/>
      <point x="60" y="113"/>
      <point x="60" y="172" type="curve"/>
      <point x="24" y="172" type="line"/>
      <point x="24" y="-1" type="line"/>
    </contour>
    <contour>
      <point x="286" y="598" type="move" name="top"/>
    </contour>
  </outline>
</glyph>
<glyph name="L" format="1">
  <advance width="514"/>
  <unicode hex="004C"/>
  <outline>
    <contour>
      <point x="368" y="0" type="line" smooth="yes"/>
      <point x="439" y="0"/>
      <point x="480" y="-1"/>
      <point x="492" y="-3" type="curve"/>
      <point x="492" y="171" type="line"/>
      <point x="466" y="171" type="line"/>
      <point x="466" y="78"/>
      <point x="418" y="28"/>
      <point x="326" y="28" type="curve" smooth="yes"/>
      <point x="213" y="28" type="line" smooth="yes"/>
      <point x="205" y="28"/>
      <point x="201" y="32"/>
      <point x="201" y="41" type="curve" smooth="yes"/>
      <point x="201" y="548" type="line" smooth="yes"/>
      <point x="201" y="560"/>
      <point x="209" y="570"/>
      <point x="221" y="569" type="curve" smooth="yes"/>
      <point x="270" y="567" type="line"/>
      <point x="270" y="597" type="line"/>
      <point x="50" y="597" type="line"/>
      <point x="50" y="567" type="line"/>
      <point x="89" y="569" type="line" smooth="yes"/>
      <point x="100" y="570"/>
      <point x="108" y="559"/>
      <point x="108" y="548" type="curve" smooth="yes"/>
      <point x="108" y="49" type="line" smooth="yes"/>
      <point x="108" y="37"/>
      <point x="104" y="27"/>
      <point x="93" y="27" type="curve"/>
      <point x="50" y="30" type="line"/>
      <point x="50" y="0" type="line"/>
    </contour>
    <contour>
      <point x="177" y="598" type="move" name="top"/>
    </contour>
    <contour>
      <point x="257" y="0" type="move" name="bottom"/>
    </contour>
    <contour>
      <point x="425" y="598" type="move" name="topright"/>
    </contour>
  </outline>
</glyph>
<glyph name="M" format="1">
  <advance width="858"/>
  <unicode hex="004D"/>
  <outline>
    <contour>
      <point x="104" y="558" type="line"/>
      <point x="104" y="49" type="line" smooth="yes"/>
      <point x="104" y="34"/>
      <point x="97" y="27"/>
      <point x="84" y="27" type="curve" smooth="yes"/>
      <point x="45" y="29" type="line"/>
      <point x="45" y="0" type="line"/>
      <point x="206" y="0" type="line"/>
      <point x="206" y="29" type="line"/>
      <point x="157" y="27" type="line" smooth="yes"/>
      <point x="144" y="27"/>
      <point x="138" y="34"/>
      <point x="138" y="49" type="curve" smooth="yes"/>
      <point x="138" y="536" type="line"/>
    </contour>
    <contour>
      <point x="444" y="102" type="line"/>
      <point x="206" y="597" type="line"/>
      <point x="52" y="597" type="line"/>
      <point x="52" y="567" type="line"/>
      <point x="94" y="569" type="line"/>
      <point x="101" y="570"/>
      <point x="104" y="568"/>
      <point x="104" y="563" type="curve" smooth="yes"/>
      <point x="104" y="538" type="line"/>
      <point x="134" y="535" type="line"/>
      <point x="395" y="-10" type="line"/>
    </contour>
    <contour>
      <point x="657" y="531" type="line"/>
      <point x="657" y="49" type="line" smooth="yes"/>
      <point x="657" y="34"/>
      <point x="650" y="27"/>
      <point x="637" y="27" type="curve" smooth="yes"/>
      <point x="588" y="29" type="line"/>
      <point x="588" y="0" type="line"/>
      <point x="808" y="0" type="line"/>
      <point x="808" y="29" type="line"/>
      <point x="769" y="27" type="line" smooth="yes"/>
      <point x="756" y="27"/>
      <point x="749" y="34"/>
      <point x="749" y="49" type="curve" smooth="yes"/>
      <point x="749" y="549" type="line" smooth="yes"/>
      <point x="749" y="560"/>
      <point x="757" y="570"/>
      <point x="769" y="569" type="curve" smooth="yes"/>
      <point x="803" y="567" type="line"/>
      <point x="803" y="597" type="line"/>
      <point x="658" y="597" type="line"/>
    </contour>
    <contour>
      <point x="658" y="597" type="line"/>
      <point x="434" y="102" type="line"/>
      <point x="395" y="-10" type="line"/>
      <point x="419" y="-10" type="line"/>
      <point x="662" y="530" type="line"/>
    </contour>
  </outline>
</glyph>
<glyph name="P" format="1">
  <advance width="523"/>
  <unicode hex="0050"/>
  <outline>
    <contour>
      <point x="270" y="0" type="line"/>
      <point x="270" y="29" type="line"/>
      <point x="221" y="27" type="line" smooth="yes"/>
      <point x="208" y="27"/>
      <point x="201" y="34"/>
      <point x="201" y="49" type="curve" smooth="yes"/>
      <point x="201" y="263" type="line"/>
      <point x="306" y="263" type="line" smooth="yes"/>
      <point x="419" y="263"/>
      <point x="488" y="332"/>
      <point x="488" y="436" type="curve" smooth="yes"/>
      <point x="488" y="544"/>
      <point x="425" y="597"/>
      <point x="285" y="597" type="curve" smooth="yes"/>
      <point x="50" y="597" type="line"/>
      <point x="50" y="567" type="line"/>
      <point x="85" y="569" type="line" smooth="yes"/>
      <point x="104" y="570"/>
      <point x="108" y="562"/>
      <point x="108" y="547" type="curve" smooth="yes"/>
      <point x="108" y="49" type="line" smooth="yes"/>
      <point x="108" y="34"/>
      <point x="102" y="27"/>
      <point x="89" y="27" type="curve" smooth="yes"/>
      <point x="50" y="29" type="line"/>
      <point x="50" y="0" type="line"/>
    </contour>
    <contour>
      <point x="201" y="557" type="line" smooth="yes"/>
      <point x="201" y="564"/>
      <point x="208" y="569"/>
      <point x="213" y="569" type="curve" smooth="yes"/>
      <point x="269" y="569" type="line" smooth="yes"/>
      <point x="345" y="569"/>
      <point x="392" y="515"/>
      <point x="392" y="436" type="curve" smooth="yes"/>
      <point x="392" y="352"/>
      <point x="346" y="291"/>
      <point x="285" y="291" type="curve" smooth="yes"/>
      <point x="201" y="291" type="line"/>
    </contour>
  </outline>
</glyph>
<glyph name="Q" format="1">
  <advance width="670"/>
  <unicode hex="0051"/>
  <outline>
    <contour>
      <point x="284" y="3" type="line"/>
      <point x="277" y="-113"/>
      <point x="388" y="-196"/>
      <point x="541" y="-196" type="curve"/>
      <point x="554" y="-166" type="line"/>
      <point x="448" y="-166"/>
      <point x="379" y="-92"/>
      <point x="385" y="5" type="curve"/>
    </contour>
    <component base="O"/>
  </outline>
</glyph>
<glyph name="S" format="1">
  <advance width="494"/>
  <unicode hex="0053"/>
  <outline>
    <contour>
      <point x="53" y="187"/>
      <point x="56" y="145"/>
      <point x="56" y="96" type="curve" smooth="yes"/>
      <point x="56" y="57"/>
      <point x="55" y="29"/>
      <point x="52" y="13" type="curve"/>
      <point x="53" y="14"/>
      <point x="78" y="18"/>
      <point x="86" y="18" type="curve" smooth="yes"/>
      <point x="105" y="18"/>
      <point x="126" y="14"/>
      <point x="165" y="3" type="curve" smooth="yes"/>
      <point x="202" y="-8"/>
      <point x="231" y="-10"/>
      <point x="268" y="-10" type="curve" smooth="yes"/>
      <point x="370" y="-10"/>
      <point x="457" y="62"/>
      <point x="457" y="168" type="curve" smooth="yes"/>
      <point x="457" y="247"/>
      <point x="417" y="292"/>
      <point x="316" y="333" type="curve" smooth="yes"/>
      <point x="224" y="370" type="line" smooth="yes"/>
      <point x="171" y="391"/>
      <point x="138" y="427"/>
      <point x="138" y="472" type="curve" smooth="yes"/>
      <point x="138" y="541"/>
      <point x="186" y="580"/>
      <point x="254" y="580" type="curve" smooth="yes"/>
      <point x="338" y="580"/>
      <point x="403" y="522"/>
      <point x="403" y="434" type="curve"/>
      <point x="429" y="434" type="line"/>
      <point x="424" y="449"/>
      <point x="423" y="461"/>
      <point x="423" y="501" type="curve" smooth="yes"/>
      <point x="423" y="535"/>
      <point x="424" y="560"/>
      <point x="426" y="576" type="curve"/>
      <point x="418" y="573"/>
      <point x="408" y="572"/>
      <point x="397" y="572" type="curve" smooth="yes"/>
      <point x="390" y="572"/>
      <point x="381" y="574"/>
      <point x="370" y="578" type="curve" smooth="yes"/>
      <point x="321" y="595"/>
      <point x="293" y="607"/>
      <point x="241" y="607" type="curve" smooth="yes"/>
      <point x="118" y="607"/>
      <point x="56" y="529"/>
      <point x="56" y="441" type="curve" smooth="yes"/>
      <point x="56" y="374"/>
      <point x="94" y="324"/>
      <point x="166" y="295" type="curve" smooth="yes"/>
      <point x="268" y="254" type="line" smooth="yes"/>
      <point x="327" y="231"/>
      <point x="367" y="191"/>
      <point x="367" y="138" type="curve" smooth="yes"/>
      <point x="366" y="66"/>
      <point x="324" y="18"/>
      <point x="257" y="18" type="curve" smooth="yes"/>
      <point x="148" y="18"/>
      <point x="88" y="82"/>
      <point x="73" y="203" type="curve"/>
      <point x="48" y="203" type="line"/>
    </contour>
    <contour>
      <point x="247" y="598" type="move" name="top"/>
    </contour>
    <contour>
      <point x="247" y="0" type="move" name="bottom"/>
    </contour>
  </outline>
</glyph>
<glyph name="T" format="1">
  <advance width="529"/>
  <unicode hex="0054"/>
  <outline>
    <contour>
      <point x="41" y="444" type="line"/>
      <point x="41" y="529"/>
      <point x="76" y="570"/>
      <point x="165" y="570" type="curve" smooth="yes"/>
      <point x="206" y="570" type="line" smooth="yes"/>
      <point x="214" y="570"/>
      <point x="218" y="566"/>
      <point x="218" y="558" type="curve" smooth="yes"/>
      <point x="218" y="52" type="line" smooth="yes"/>
      <point x="218" y="39"/>
      <point x="211" y="27"/>
      <point x="199" y="27" type="curve" smooth="yes"/>
      <point x="145" y="29" type="line"/>
      <point x="145" y="0" type="line"/>
      <point x="384" y="0" type="line"/>
      <point x="384" y="29" type="line"/>
      <point x="331" y="27" type="line" smooth="yes"/>
      <point x="318" y="27"/>
      <point x="311" y="34"/>
      <point x="311" y="49" type="curve" smooth="yes"/>
      <point x="311" y="559" type="line"/>
      <point x="312" y="566"/>
      <point x="316" y="570"/>
      <point x="323" y="570" type="curve" smooth="yes"/>
      <point x="365" y="570" type="line" smooth="yes"/>
      <point x="454" y="570"/>
      <point x="488" y="529"/>
      <point x="488" y="444" type="curve"/>
      <point x="514" y="444" type="line"/>
      <point x="514" y="600" type="line"/>
      <point x="510" y="599"/>
      <point x="497" y="598"/>
      <point x="474" y="598" type="curve" smooth="yes"/>
      <point x="397" y="598" type="line"/>
      <point x="133" y="598" type="line"/>
      <point x="55" y="598" type="line" smooth="yes"/>
      <point x="36" y="598"/>
      <point x="22" y="599"/>
      <point x="15" y="600" type="curve"/>
      <point x="15" y="444" type="line"/>
    </contour>
    <contour>
      <point x="265" y="299" type="move" name="center"/>
    </contour>
    <contour>
      <point x="265" y="0" type="move" name="bottom"/>
    </contour>
    <contour>
      <point x="265" y="598" type="move" name="top"/>
    </contour>
  </outline>
</glyph>
<glyph name="V" format="1">
  <advance width="584"/>
  <unicode hex="0056"/>
  <outline>
    <contour>
      <point x="23" y="569" type="line" smooth="yes"/>
      <point x="32" y="569"/>
      <point x="39" y="561"/>
      <point x="46" y="546" type="curve" smooth="yes"/>
      <point x="283" y="-4" type="line"/>
      <point x="309" y="-4" type="line"/>
      <point x="547" y="546" type="line" smooth="yes"/>
      <point x="554" y="562"/>
      <point x="557" y="570"/>
      <point x="568" y="569" type="curve" smooth="yes"/>
      <point x="604" y="567" type="line"/>
      <point x="604" y="597" type="line"/>
      <point x="447" y="597" type="line"/>
      <point x="447" y="567" type="line"/>
      <point x="498" y="569" type="line" smooth="yes"/>
      <point x="513" y="569"/>
      <point x="513" y="557"/>
      <point x="503" y="534" type="curve" smooth="yes"/>
      <point x="321" y="111" type="line"/>
      <point x="337" y="111" type="line"/>
      <point x="148" y="545" type="line" smooth="yes"/>
      <point x="144" y="556"/>
      <point x="148" y="569"/>
      <point x="157" y="569" type="curve" smooth="yes"/>
      <point x="210" y="567" type="line"/>
      <point x="210" y="597" type="line"/>
      <point x="-5" y="597" type="line"/>
      <point x="-5" y="567" type="line"/>
    </contour>
  </outline>
</glyph>
<glyph name="Z" format="1">
  <advance width="512"/>
  <unicode hex="005A"/>
  <outline>
    <contour>
      <point x="371" y="0" type="line" smooth="yes"/>
      <point x="438" y="0"/>
      <point x="475" y="-1"/>
      <point x="484" y="-4" type="curve"/>
      <point x="492" y="167" type="line"/>
      <point x="465" y="167" type="line"/>
      <point x="465" y="79"/>
      <point x="406" y="27"/>
      <point x="315" y="27" type="curve" smooth="yes"/>
      <point x="117" y="27" type="line"/>
      <point x="133" y="14" type="line"/>
      <point x="464" y="573" type="line"/>
      <point x="464" y="597" type="line"/>
      <point x="144" y="597" type="line"/>
      <point x="103" y="597"/>
      <point x="71" y="600"/>
      <point x="35" y="600" type="curve"/>
      <point x="35" y="443" type="line"/>
      <point x="62" y="443" type="line"/>
      <point x="62" y="530"/>
      <point x="108" y="569"/>
      <point x="203" y="569" type="curve" smooth="yes"/>
      <point x="373" y="569" type="line"/>
      <point x="363" y="583" type="line"/>
      <point x="34" y="27" type="line"/>
      <point x="34" y="0" type="line"/>
    </contour>
    <contour>
      <point x="256" y="598" type="move" name="top"/>
    </contour>
  </outline>
</glyph>
<glyph name="asciicircum" format="1">
  <advance width="460"/>
  <unicode hex="005E"/>
  <outline>
    <contour>
      <point x="64" y="321" type="line"/>
      <point x="211" y="566" type="line"/>
      <point x="230" y="608" type="line"/>
      <point x="250" y="566" type="line"/>
      <point x="395" y="321" type="line"/>
      <point x="442" y="321" type="line"/>
      <point x="242" y="657" type="line"/>
      <point x="219" y="657" type="line"/>
      <point x="18" y="321" type="line"/>
    </contour>
  </outline>
</glyph>
<glyph name="a" format="1">
  <advance width="450"/>
  <unicode hex="0061"/>
  <outline>
    <contour>
      <point x="113" y="430"/>
      <point x="51" y="391"/>
      <point x="51" y="336" type="curve" smooth="yes"/>
      <point x="51" y="309"/>
      <point x="66" y="289"/>
      <point x="95" y="289" type="curve" smooth="yes"/>
      <point x="117" y="289"/>
      <point x="134" y="300"/>
      <point x="134" y="323" type="curve" smooth="yes"/>
      <point x="134" y="340"/>
      <point x="125" y="345"/>
      <point x="125" y="361" type="curve" smooth="yes"/>
      <point x="125" y="382"/>
      <point x="140" y="403"/>
      <point x="201" y="403" type="curve" smooth="yes"/>
      <point x="266" y="403"/>
      <point x="294" y="379"/>
      <point x="294" y="316" type="curve" smooth="yes"/>
      <point x="294" y="90" type="line"/>
      <point x="295" y="87" type="line"/>
      <point x="292" y="37" type="line"/>
      <point x="292" y="32"/>
      <point x="289" y="5"/>
      <point x="288" y="0" type="curve"/>
      <point x="430" y="0" type="line"/>
      <point x="430" y="26" type="line"/>
      <point x="393" y="24" type="line"/>
      <point x="384" y="24"/>
      <point x="380" y="30"/>
      <point x="380" y="43" type="curve" smooth="yes"/>
      <point x="380" y="289" type="line" smooth="yes"/>
      <point x="380" y="385"/>
      <point x="321" y="430"/>
      <point x="213" y="430" type="curve" smooth="yes"/>
    </contour>
    <contour>
      <point x="112" y="260"/>
      <point x="27" y="212"/>
      <point x="27" y="108" type="curve" smooth="yes"/>
      <point x="27" y="32"/>
      <point x="72" y="-5"/>
      <point x="155" y="-5" type="curve" smooth="yes"/>
      <point x="221" y="-5"/>
      <point x="269" y="19"/>
      <point x="300" y="88" type="curve"/>
      <point x="294" y="187" type="line"/>
      <point x="299" y="96"/>
      <point x="249" y="31"/>
      <point x="185" y="31" type="curve" smooth="yes"/>
      <point x="143" y="31"/>
      <point x="118" y="59"/>
      <point x="118" y="116" type="curve" smooth="yes"/>
      <point x="118" y="198"/>
      <point x="171" y="233"/>
      <point x="305" y="231" type="curve"/>
      <point x="305" y="258" type="line"/>
    </contour>
    <contour>
      <point x="405" y="10" type="move" name="ogonek"/>
    </contour>
    <contour>
      <point x="225" y="420" type="move" name="top"/>
    </contour>
  </outline>
</glyph>
<glyph name="c" format="1">
  <advance width="425"/>
  <unicode hex="0063"/>
  <outline>
    <contour>
      <point x="115" y="430"/>
      <point x="36" y="343"/>
      <point x="36" y="206" type="curve" smooth="yes"/>
      <point x="36" y="72"/>
      <point x="111" y="-10"/>
      <point x="237" y="-10" type="curve" smooth="yes"/>
      <point x="326" y="-10"/>
      <point x="384" y="36"/>
      <point x="407" y="106" type="curve"/>
      <point x="383" y="124" type="line"/>
      <point x="366" y="53"/>
      <point x="305" y="17"/>
      <point x="242" y="17" type="curve" smooth="yes"/>
      <point x="166" y="17"/>
      <point x="129" y="82"/>
      <point x="129" y="217" type="curve" smooth="yes"/>
      <point x="129" y="361"/>
      <point x="171" y="403"/>
      <point x="235" y="403" type="curve" smooth="yes"/>
      <point x="274" y="403"/>
      <point x="313" y="387"/>
      <point x="313" y="351" type="curve" smooth="yes"/>
      <point x="313" y="333"/>
      <point x="304" y="324"/>
      <point x="304" y="308" type="curve" smooth="yes"/>
      <point x="304" y="287"/>
      <point x="318" y="278"/>
      <point x="339" y="278" type="curve" smooth="yes"/>
      <point x="375" y="278"/>
      <point x="387" y="304"/>
      <point x="387" y="328" type="curve" smooth="yes"/>
      <point x="387" y="386"/>
      <point x="315" y="430"/>
      <point x="232" y="430" type="curve" smooth="yes"/>
    </contour>
    <contour>
      <point x="213" y="420" type="move" name="top"/>
    </contour>
    <contour>
      <point x="213" y="0" type="move" name="bottom"/>
    </contour>
  </outline>
</glyph>
<glyph name="d" format="1">
  <advance width="496"/>
  <unicode hex="0064"/>
  <outline>
    <contour>
      <point x="35" y="64"/>
      <point x="85" y="-10"/>
      <point x="225" y="-10" type="curve" smooth="yes"/>
      <point x="289" y="-10"/>
      <point x="321" y="20"/>
      <point x="336" y="67" type="curve"/>
      <point x="336" y="64"/>
      <point x="334" y="51"/>
      <point x="334" y="38" type="curve" smooth="yes"/>
      <point x="334" y="16" type="line" smooth="yes"/>
      <point x="334" y="9"/>
      <point x="333" y="4"/>
      <point x="332" y="0" type="curve"/>
      <point x="476" y="0" type="line"/>
      <point x="476" y="26" type="line"/>
      <point x="439" y="24" type="line" smooth="yes"/>
      <point x="430" y="24"/>
      <point x="426" y="30"/>
      <point x="426" y="43" type="curve" smooth="yes"/>
      <point x="426" y="730" type="line"/>
      <point x="280" y="730" type="line"/>
      <point x="280" y="705" type="line"/>
      <point x="326" y="707" type="line" smooth="yes"/>
      <point x="335" y="707"/>
      <point x="339" y="698"/>
      <point x="339" y="687" type="curve" smooth="yes"/>
      <point x="339" y="348" type="line"/>
      <point x="326" y="393"/>
      <point x="288" y="430"/>
      <point x="224" y="430" type="curve" smooth="yes"/>
      <point x="99" y="430"/>
      <point x="35" y="354"/>
      <point x="35" y="209" type="curve" smooth="yes"/>
    </contour>
    <contour>
      <point x="127" y="325"/>
      <point x="148" y="403"/>
      <point x="224" y="403" type="curve" smooth="yes"/>
      <point x="303" y="403"/>
      <point x="337" y="334"/>
      <point x="337" y="226" type="curve" smooth="yes"/>
      <point x="337" y="184" type="line" smooth="yes"/>
      <point x="337" y="71"/>
      <point x="308" y="17"/>
      <point x="225" y="17" type="curve" smooth="yes"/>
      <point x="148" y="17"/>
      <point x="127" y="67"/>
      <point x="127" y="209" type="curve" smooth="yes"/>
    </contour>
    <contour>
      <point x="248" y="213" type="move" name="center"/>
    </contour>
    <contour>
      <point x="495" y="598" type="move" name="topright"/>
    </contour>
  </outline>
</glyph>
<glyph name="h" format="1">
  <advance width="525"/>
  <unicode hex="0068"/>
  <outline>
    <contour>
      <point x="248" y="430"/>
      <point x="192" y="387"/>
      <point x="167" y="320" type="curve"/>
      <point x="171" y="193" type="line"/>
      <point x="167" y="316"/>
      <point x="219" y="398"/>
      <point x="302" y="398" type="curve" smooth="yes"/>
      <point x="363" y="398"/>
      <point x="369" y="355"/>
      <point x="369" y="270" type="curve" smooth="yes"/>
      <point x="369" y="43" type="line" smooth="yes"/>
      <point x="369" y="32"/>
      <point x="365" y="26"/>
      <point x="356" y="24" type="curve"/>
      <point x="310" y="26" type="line"/>
      <point x="310" y="0" type="line"/>
      <point x="505" y="0" type="line"/>
      <point x="505" y="26" type="line"/>
      <point x="468" y="24" type="line" smooth="yes"/>
      <point x="459" y="24"/>
      <point x="455" y="30"/>
      <point x="455" y="43" type="curve" smooth="yes"/>
      <point x="455" y="288" type="line" smooth="yes"/>
      <point x="455" y="388"/>
      <point x="416" y="430"/>
      <point x="321" y="430" type="curve" smooth="yes"/>
    </contour>
    <contour>
      <point x="35" y="730" type="line"/>
      <point x="35" y="705" type="line"/>
      <point x="72" y="707" type="line" smooth="yes"/>
      <point x="81" y="707"/>
      <point x="85" y="700"/>
      <point x="85" y="686" type="curve" smooth="yes"/>
      <point x="85" y="43" type="line" smooth="yes"/>
      <point x="85" y="32"/>
      <point x="81" y="26"/>
      <point x="72" y="24" type="curve"/>
      <point x="35" y="26" type="line"/>
      <point x="35" y="0" type="line"/>
      <point x="230" y="0" type="line"/>
      <point x="230" y="26" type="line"/>
      <point x="184" y="24" type="line" smooth="yes"/>
      <point x="175" y="24"/>
      <point x="171" y="30"/>
      <point x="171" y="43" type="curve" smooth="yes"/>
      <point x="171" y="219" type="line"/>
      <point x="171" y="320" type="line"/>
      <point x="171" y="730" type="line"/>
    </contour>
    <contour>
      <point x="263" y="213" type="move" name="center"/>
    </contour>
    <contour>
      <point x="123" y="650" type="move" name="top"/>
    </contour>
  </outline>
</glyph>
<glyph name="i" format="1">
  <advance width="255"/>
  <unicode hex="0069"/>
  <outline>
    <contour>
      <point x="36" y="420" type="line"/>
      <point x="36" y="394" type="line"/>
      <point x="73" y="396" type="line"/>
      <point x="81" y="394"/>
      <point x="85" y="387"/>
      <point x="85" y="376" type="curve" smooth="yes"/>
      <point x="85" y="43" type="line" smooth="yes"/>
      <point x="85" y="30"/>
      <point x="81" y="24"/>
      <point x="72" y="24" type="curve" smooth="yes"/>
      <point x="35" y="26" type="line"/>
      <point x="35" y="0" type="line"/>
      <point x="220" y="0" type="line"/>
      <point x="220" y="26" type="line"/>
      <point x="184" y="24" type="line" smooth="yes"/>
      <point x="175" y="24"/>
      <point x="171" y="30"/>
      <point x="171" y="43" type="curve" smooth="yes"/>
      <point x="171" y="420" type="line"/>
    </contour>
    <contour>
      <point x="90" y="643"/>
      <point x="67" y="625"/>
      <point x="67" y="596" type="curve" smooth="yes"/>
      <point x="67" y="565"/>
      <point x="90" y="548"/>
      <point x="121" y="548" type="curve" smooth="yes"/>
      <point x="153" y="548"/>
      <point x="176" y="565"/>
      <point x="176" y="596" type="curve" smooth="yes"/>
      <point x="176" y="625"/>
      <point x="153" y="643"/>
      <point x="121" y="643" type="curve" smooth="yes"/>
    </contour>
    <contour>
      <point x="179" y="14" type="move" name="ogonek"/>
    </contour>
  </outline>
</glyph>
<glyph name="k" format="1">
  <advance width="511"/>
  <unicode hex="006B"/>
  <outline>
    <contour>
      <point x="36" y="730" type="line"/>
      <point x="36" y="705" type="line"/>
      <point x="73" y="707" type="line" smooth="yes"/>
      <point x="81" y="707"/>
      <point x="85" y="700"/>
      <point x="85" y="686" type="curve" smooth="yes"/>
      <point x="85" y="43" type="line" smooth="yes"/>
      <point x="85" y="32"/>
      <point x="81" y="26"/>
      <point x="72" y="24" type="curve"/>
      <point x="35" y="26" type="line"/>
      <point x="35" y="0" type="line"/>
      <point x="230" y="0" type="line"/>
      <point x="230" y="26" type="line"/>
      <point x="184" y="24" type="line" smooth="yes"/>
      <point x="175" y="24"/>
      <point x="171" y="30"/>
      <point x="171" y="43" type="curve"/>
      <point x="171" y="730" type="line"/>
    </contour>
    <contour>
      <point x="198" y="239" type="line"/>
      <point x="343" y="38" type="line" smooth="yes"/>
      <point x="348" y="31"/>
      <point x="346" y="23"/>
      <point x="334" y="24" type="curve" smooth="yes"/>
      <point x="289" y="26" type="line"/>
      <point x="289" y="0" type="line"/>
      <point x="504" y="0" type="line"/>
      <point x="504" y="26" type="line"/>
      <point x="468" y="24" type="line" smooth="yes"/>
      <point x="460" y="24"/>
      <point x="449" y="31"/>
      <point x="441" y="42" type="curve" smooth="yes"/>
      <point x="260" y="292" type="line"/>
    </contour>
    <contour>
      <point x="288" y="420" type="line"/>
      <point x="288" y="395" type="line"/>
      <point x="331" y="397" type="line" smooth="yes"/>
      <point x="343" y="398"/>
      <point x="341" y="384"/>
      <point x="334" y="377" type="curve"/>
      <point x="164" y="231" type="line"/>
      <point x="164" y="196" type="line"/>
      <point x="383" y="383" type="line"/>
      <point x="393" y="392"/>
      <point x="403" y="397"/>
      <point x="414" y="397" type="curve" smooth="yes"/>
      <point x="450" y="395" type="line"/>
      <point x="450" y="420" type="line"/>
    </contour>
    <contour>
      <point x="256" y="0" type="move" name="bottom"/>
    </contour>
  </outline>
</glyph>
<glyph name="l" format="1">
  <advance width="255"/>
  <unicode hex="006C"/>
  <outline>
    <contour>
      <point x="220" y="0" type="line"/>
      <point x="220" y="26" type="line"/>
      <point x="184" y="24" type="line" smooth="yes"/>
      <point x="175" y="24"/>
      <point x="171" y="30"/>
      <point x="171" y="43" type="curve" smooth="yes"/>
      <point x="171" y="731" type="line"/>
      <point x="36" y="731" type="line"/>
      <point x="36" y="706" type="line"/>
      <point x="73" y="708" type="line"/>
      <point x="81" y="705"/>
      <point x="85" y="698"/>
      <point x="85" y="687" type="curve" smooth="yes"/>
      <point x="85" y="43" type="line" smooth="yes"/>
      <point x="85" y="32"/>
      <point x="81" y="26"/>
      <point x="72" y="24" type="curve"/>
      <point x="35" y="26" type="line"/>
      <point x="35" y="0" type="line"/>
    </contour>
    <contour>
      <point x="128" y="650" type="move" name="top"/>
    </contour>
    <contour>
      <point x="128" y="0" type="move" name="bottom"/>
    </contour>
    <contour>
      <point x="235" y="598" type="move" name="topright"/>
    </contour>
  </outline>
</glyph>
<glyph name="q" format="1">
  <advance width="490"/>
  <unicode hex="0071"/>
  <outline>
    <contour>
      <point x="95" y="430"/>
      <point x="35" y="354"/>
      <point x="35" y="209" type="curve" smooth="yes"/>
      <point x="35" y="37"/>
      <point x="103" y="-10"/>
      <point x="222" y="-10" type="curve" smooth="yes"/>
      <point x="286" y="-10"/>
      <point x="326" y="25"/>
      <point x="339" y="62" type="curve"/>
      <point x="339" y="-195" type="line" smooth="yes"/>
      <point x="339" y="-207"/>
      <point x="335" y="-213"/>
      <point x="326" y="-214" type="curve"/>
      <point x="270" y="-213" type="line"/>
      <point x="270" y="-239" type="line"/>
      <point x="470" y="-239" type="line"/>
      <point x="470" y="-213" type="line"/>
      <point x="438" y="-214" type="line"/>
      <point x="429" y="-215"/>
      <point x="425" y="-208"/>
      <point x="425" y="-195" type="curve" smooth="yes"/>
      <point x="425" y="420" type="line"/>
      <point x="392" y="420" type="line"/>
      <point x="392" y="373"/>
      <point x="378" y="361"/>
      <point x="361" y="361" type="curve" smooth="yes"/>
      <point x="350" y="361"/>
      <point x="344" y="371"/>
      <point x="341" y="375" type="curve" smooth="yes"/>
      <point x="312" y="415"/>
      <point x="280" y="430"/>
      <point x="224" y="430" type="curve" smooth="yes"/>
    </contour>
    <contour>
      <point x="318" y="403"/>
      <point x="337" y="298"/>
      <point x="337" y="226" type="curve" smooth="yes"/>
      <point x="337" y="185" type="line" smooth="yes"/>
      <point x="337" y="124"/>
      <point x="310" y="17"/>
      <point x="227" y="17" type="curve" smooth="yes"/>
      <point x="164" y="17"/>
      <point x="127" y="41"/>
      <point x="127" y="209" type="curve" smooth="yes"/>
      <point x="127" y="350"/>
      <point x="158" y="403"/>
      <point x="231" y="403" type="curve" smooth="yes"/>
    </contour>
  </outline>
</glyph>
<glyph name="r" format="1">
  <advance width="383"/>
  <unicode hex="0072"/>
  <outline>
    <contour>
      <point x="170" y="374" type="line" smooth="yes"/>
      <point x="170" y="390"/>
      <point x="173" y="412"/>
      <point x="176" y="420" type="curve"/>
      <point x="35" y="420" type="line"/>
      <point x="35" y="394" type="line"/>
      <point x="71" y="396" type="line"/>
      <point x="80" y="396"/>
      <point x="84" y="389"/>
      <point x="84" y="376" type="curve" smooth="yes"/>
      <point x="84" y="43" type="line" smooth="yes"/>
      <point x="84" y="30"/>
      <point x="80" y="24"/>
      <point x="71" y="24" type="curve"/>
      <point x="39" y="26" type="line"/>
      <point x="39" y="0" type="line"/>
      <point x="244" y="0" type="line"/>
      <point x="244" y="26" type="line"/>
      <point x="183" y="24" type="line" smooth="yes"/>
      <point x="174" y="24"/>
      <point x="170" y="30"/>
      <point x="170" y="43" type="curve" smooth="yes"/>
    </contour>
    <contour>
      <point x="170" y="198" type="line"/>
      <point x="167" y="270"/>
      <point x="203" y="402"/>
      <point x="275" y="402" type="curve" smooth="yes"/>
      <point x="293" y="402"/>
      <point x="298" y="390"/>
      <point x="298" y="381" type="curve" smooth="yes"/>
      <point x="298" y="364"/>
      <point x="290" y="354"/>
      <point x="290" y="336" type="curve" smooth="yes"/>
      <point x="290" y="313"/>
      <point x="311" y="305"/>
      <point x="327" y="305" type="curve" smooth="yes"/>
      <point x="351" y="305"/>
      <point x="369" y="320"/>
      <point x="369" y="352" type="curve" smooth="yes"/>
      <point x="369" y="395"/>
      <point x="341" y="430"/>
      <point x="287" y="430" type="curve" smooth="yes"/>
      <point x="237" y="430"/>
      <point x="197" y="398"/>
      <point x="164" y="310" type="curve"/>
    </contour>
    <contour>
      <point x="142" y="420" type="move" name="top"/>
    </contour>
    <contour>
      <point x="137" y="0" type="move" name="bottom"/>
    </contour>
  </outline>
</glyph>
<glyph name="s" format="1">
  <advance width="411"/>
  <unicode hex="0073"/>
  <outline>
    <contour>
      <point x="50" y="14"/>
      <point x="60" y="16"/>
      <point x="73" y="16" type="curve" smooth="yes"/>
      <point x="80" y="16"/>
      <point x="89" y="15"/>
      <point x="100" y="12" type="curve" smooth="yes"/>
      <point x="160" y="-5"/>
      <point x="183" y="-10"/>
      <point x="212" y="-10" type="curve" smooth="yes"/>
      <point x="308" y="-10"/>
      <point x="378" y="37"/>
      <point x="378" y="126" type="curve" smooth="yes"/>
      <point x="378" y="182"/>
      <point x="356" y="219"/>
      <point x="285" y="239" type="curve" smooth="yes"/>
      <point x="189" y="266" type="line" smooth="yes"/>
      <point x="148" y="277"/>
      <point x="127" y="299"/>
      <point x="127" y="332" type="curve" smooth="yes"/>
      <point x="127" y="372"/>
      <point x="156" y="403"/>
      <point x="208" y="403" type="curve" smooth="yes"/>
      <point x="284" y="403"/>
      <point x="325" y="352"/>
      <point x="325" y="302" type="curve"/>
      <point x="347" y="302" type="line"/>
      <point x="353" y="416" type="line"/>
      <point x="345" y="411"/>
      <point x="333" y="408"/>
      <point x="325" y="408" type="curve" smooth="yes"/>
      <point x="292" y="408"/>
      <point x="258" y="430"/>
      <point x="205" y="430" type="curve" smooth="yes"/>
      <point x="109" y="430"/>
      <point x="52" y="378"/>
      <point x="52" y="306" type="curve" smooth="yes"/>
      <point x="52" y="249"/>
      <point x="86" y="210"/>
      <point x="138" y="195" type="curve" smooth="yes"/>
      <point x="234" y="168" type="line" smooth="yes"/>
      <point x="286" y="153"/>
      <point x="304" y="130"/>
      <point x="304" y="93" type="curve" smooth="yes"/>
      <point x="304" y="46"/>
      <point x="273" y="17"/>
      <point x="220" y="17" type="curve" smooth="yes"/>
      <point x="142" y="17"/>
      <point x="75" y="69"/>
      <point x="75" y="144" type="curve"/>
      <point x="49" y="142" type="line"/>
      <point x="44" y="10" type="line"/>
    </contour>
    <contour>
      <point x="206" y="420" type="move" name="top"/>
    </contour>
    <contour>
      <point x="216" y="0" type="move" name="bottom"/>
    </contour>
  </outline>
</glyph>
<glyph name="t" format="1">
  <advance width="313"/>
  <unicode hex="0074"/>
  <outline>
    <contour>
      <point x="143" y="522" type="line"/>
      <point x="122" y="434"/>
      <point x="100" y="420"/>
      <point x="25" y="420" type="curve"/>
      <point x="25" y="395" type="line"/>
      <point x="85" y="395" type="line"/>
      <point x="85" y="96" type="line" smooth="yes"/>
      <point x="85" y="24"/>
      <point x="111" y="-6"/>
      <point x="179" y="-6" type="curve" smooth="yes"/>
      <point x="240" y="-6"/>
      <point x="272" y="14"/>
      <point x="285" y="50" type="curve"/>
      <point x="264" y="63" type="line"/>
      <point x="257" y="40"/>
      <point x="231" y="23"/>
      <point x="212" y="23" type="curve" smooth="yes"/>
      <point x="181" y="23"/>
      <point x="171" y="37"/>
      <point x="171" y="88" type="curve" smooth="yes"/>
      <point x="171" y="395" type="line"/>
      <point x="281" y="395" type="line"/>
      <point x="281" y="420" type="line"/>
      <point x="171" y="420" type="line"/>
      <point x="171" y="522" type="line"/>
    </contour>
    <contour>
      <point x="157" y="213" type="move" name="center"/>
    </contour>
    <contour>
      <point x="157" y="0" type="move" name="bottom"/>
    </contour>
    <contour>
      <point x="245" y="598" type="move" name="topright"/>
    </contour>
  </outline>
</glyph>
<glyph name="u" format="1">
  <advance width="524"/>
  <unicode hex="0075"/>
  <outline>
    <contour>
      <point x="20" y="420" type="line"/>
      <point x="20" y="394" type="line"/>
      <point x="56" y="396" type="line" smooth="yes"/>
      <point x="65" y="396"/>
      <point x="69" y="389"/>
      <point x="69" y="376" type="curve" smooth="yes"/>
      <point x="69" y="148" type="line" smooth="yes"/>
      <point x="69" y="36"/>
      <point x="106" y="-10"/>
      <point x="195" y="-10" type="curve" smooth="yes"/>
      <point x="274" y="-10"/>
      <point x="332" y="27"/>
      <point x="357" y="98" type="curve"/>
      <point x="353" y="226" type="line"/>
      <point x="358" y="100"/>
      <point x="300" y="23"/>
      <point x="216" y="23" type="curve" smooth="yes"/>
      <point x="164" y="23"/>
      <point x="155" y="64"/>
      <point x="155" y="148" type="curve" smooth="yes"/>
      <point x="155" y="420" type="line"/>
    </contour>
    <contour>
      <point x="294" y="420" type="line"/>
      <point x="294" y="394" type="line"/>
      <point x="341" y="396" type="line" smooth="yes"/>
      <point x="349" y="396"/>
      <point x="353" y="389"/>
      <point x="353" y="375" type="curve"/>
      <point x="352" y="72" type="line"/>
      <point x="352" y="20"/>
      <point x="350" y="7"/>
      <point x="347" y="0" type="curve"/>
      <point x="489" y="0" type="line"/>
      <point x="489" y="26" type="line"/>
      <point x="453" y="24" type="line" smooth="yes"/>
      <point x="444" y="24"/>
      <point x="440" y="30"/>
      <point x="440" y="43" type="curve" smooth="yes"/>
      <point x="440" y="420" type="line"/>
    </contour>
    <contour>
      <point x="442" y="14" type="move" name="ogonek"/>
    </contour>
    <contour>
      <point x="262" y="420" type="move" name="top"/>
    </contour>
  </outline>
</glyph>
<glyph name="v" format="1">
  <advance width="444"/>
  <unicode hex="0076"/>
  <outline>
    <contour>
      <point x="244" y="102" type="line"/>
      <point x="131" y="376" type="line" smooth="yes"/>
      <point x="127" y="387"/>
      <point x="137" y="396"/>
      <point x="146" y="396" type="curve" smooth="yes"/>
      <point x="190" y="394" type="line"/>
      <point x="190" y="420" type="line"/>
      <point x="-13" y="420" type="line"/>
      <point x="-13" y="394" type="line"/>
      <point x="20" y="396" type="line" smooth="yes"/>
      <point x="29" y="396"/>
      <point x="37" y="390"/>
      <point x="40" y="383" type="curve" smooth="yes"/>
      <point x="194" y="-5" type="line"/>
      <point x="221" y="-5" type="line"/>
    </contour>
    <contour>
      <point x="221" y="-5" type="line"/>
      <point x="379" y="381" type="line" smooth="yes"/>
      <point x="383" y="392"/>
      <point x="391" y="396"/>
      <point x="402" y="396" type="curve" smooth="yes"/>
      <point x="435" y="394" type="line"/>
      <point x="435" y="420" type="line"/>
      <point x="294" y="420" type="line"/>
      <point x="294" y="394" type="line"/>
      <point x="338" y="396" type="line" smooth="yes"/>
      <point x="349" y="397"/>
      <point x="349" y="387"/>
      <point x="346" y="380" type="curve" smooth="yes"/>
      <point x="196" y="2" type="line"/>
    </contour>
  </outline>
</glyph>
<glyph name="w" format="1">
  <advance width="725"/>
  <unicode hex="0077"/>
  <outline>
    <contour>
      <point x="341" y="321" type="line"/>
      <point x="483" y="-10" type="line"/>
      <point x="505" y="-10" type="line"/>
      <point x="654" y="379" type="line" smooth="yes"/>
      <point x="658" y="391"/>
      <point x="667" y="396"/>
      <point x="675" y="396" type="curve" smooth="yes"/>
      <point x="716" y="394" type="line"/>
      <point x="716" y="420" type="line"/>
      <point x="557" y="420" type="line"/>
      <point x="557" y="394" type="line"/>
      <point x="610" y="396" type="line" smooth="yes"/>
      <point x="625" y="397"/>
      <point x="624" y="387"/>
      <point x="621" y="379" type="curve" smooth="yes"/>
      <point x="517" y="93" type="line"/>
      <point x="536" y="93" type="line"/>
      <point x="393" y="425" type="line"/>
      <point x="372" y="425" type="line"/>
      <point x="225" y="88" type="line"/>
      <point x="243" y="88" type="line"/>
      <point x="141" y="376" type="line" smooth="yes"/>
      <point x="137" y="387"/>
      <point x="141" y="397"/>
      <point x="156" y="396" type="curve" smooth="yes"/>
      <point x="200" y="394" type="line"/>
      <point x="200" y="420" type="line"/>
      <point x="-13" y="420" type="line"/>
      <point x="-13" y="394" type="line"/>
      <point x="33" y="396" type="line" smooth="yes"/>
      <point x="41" y="396"/>
      <point x="47" y="390"/>
      <point x="50" y="383" type="curve" smooth="yes"/>
      <point x="191" y="-10" type="line"/>
      <point x="211" y="-10" type="line"/>
      <point x="358" y="321" type="line"/>
    </contour>
    <contour>
      <point x="385" y="420" type="move" name="top"/>
    </contour>
  </outline>
</glyph>
<glyph name="y" format="1">
  <advance width="485"/>
  <unicode hex="0079"/>
  <outline>
    <contour>
      <point x="276" y="99" type="line"/>
      <point x="149" y="379" type="line" smooth="yes"/>
      <point x="145" y="387"/>
      <point x="152" y="396"/>
      <point x="161" y="396" type="curve" smooth="yes"/>
      <point x="206" y="394" type="line"/>
      <point x="206" y="420" type="line"/>
      <point x="-13" y="420" type="line"/>
      <point x="-13" y="394" type="line"/>
      <point x="36" y="396" type="line" smooth="yes"/>
      <point x="44" y="396"/>
      <point x="48" y="391"/>
      <point x="52" y="383" type="curve" smooth="yes"/>
      <point x="231" y="-9" type="line"/>
    </contour>
    <contour>
      <point x="167" y="-135" type="line"/>
      <point x="154" y="-168"/>
      <point x="136" y="-181"/>
      <point x="121" y="-181" type="curve" smooth="yes"/>
      <point x="93" y="-181"/>
      <point x="99" y="-139"/>
      <point x="58" y="-139" type="curve" smooth="yes"/>
      <point x="39" y="-139"/>
      <point x="19" y="-155"/>
      <point x="19" y="-190" type="curve" smooth="yes"/>
      <point x="22" y="-222"/>
      <point x="50" y="-239"/>
      <point x="85" y="-239" type="curve" smooth="yes"/>
      <point x="138" y="-239"/>
      <point x="171" y="-211"/>
      <point x="203" y="-132" type="curve" smooth="yes"/>
      <point x="414" y="377" type="line" smooth="yes"/>
      <point x="420" y="390"/>
      <point x="428" y="396"/>
      <point x="439" y="396" type="curve" smooth="yes"/>
      <point x="441" y="396" type="line"/>
      <point x="482" y="394" type="line"/>
      <point x="482" y="420" type="line"/>
      <point x="327" y="420" type="line"/>
      <point x="327" y="394" type="line"/>
      <point x="374" y="396" type="line" smooth="yes"/>
      <point x="385" y="396"/>
      <point x="387" y="389"/>
      <point x="384" y="381" type="curve"/>
    </contour>
    <contour>
      <point x="248" y="420" type="move" name="top"/>
    </contour>
  </outline>
</glyph>
<glyph name="braceleft" format="1">
  <advance width="280"/>
  <unicode hex="007B"/>
  <outline>
    <contour>
      <point x="89" y="244"/>
      <point x="102" y="237"/>
      <point x="102" y="176" type="curve" smooth="yes"/>
      <point x="102" y="-53" type="line" smooth="yes"/>
      <point x="102" y="-125"/>
      <point x="121" y="-146"/>
      <point x="201" y="-146" type="curve" smooth="yes"/>
      <point x="235" y="-146" type="line"/>
      <point x="235" y="-116" type="line"/>
      <point x="208" y="-116" type="line" smooth="yes"/>
      <point x="180" y="-116"/>
      <point x="169" y="-95"/>
      <point x="169" y="-60" type="curve" smooth="yes"/>
      <point x="169" y="176" type="line" smooth="yes"/>
      <point x="169" y="238"/>
      <point x="148" y="251"/>
      <point x="73" y="267" type="curve"/>
      <point x="148" y="280"/>
      <point x="169" y="296"/>
      <point x="169" y="358" type="curve" smooth="yes"/>
      <point x="169" y="589" type="line" smooth="yes"/>
      <point x="169" y="626"/>
      <point x="182" y="645"/>
      <point x="208" y="645" type="curve" smooth="yes"/>
      <point x="235" y="645" type="line"/>
      <point x="235" y="675" type="line"/>
      <point x="201" y="675" type="line" smooth="yes"/>
      <point x="124" y="675"/>
      <point x="102" y="654"/>
      <point x="102" y="582" type="curve" smooth="yes"/>
      <point x="102" y="358" type="line" smooth="yes"/>
      <point x="102" y="305"/>
      <point x="83" y="285"/>
      <point x="30" y="277" type="curve"/>
      <point x="30" y="257" type="line"/>
    </contour>
  </outline>
</glyph>
<glyph name="asciitilde" format="1">
  <advance width="460"/>
  <unicode hex="007E"/>
  <outline>
    <contour>
      <point x="49" y="226" type="line"/>
      <point x="80" y="271"/>
      <point x="98" y="280"/>
      <point x="131" y="280" type="curve" smooth="yes"/>
      <point x="192" y="280"/>
      <point x="262" y="215"/>
      <point x="325" y="215" type="curve" smooth="yes"/>
      <point x="369" y="215"/>
      <point x="410" y="245"/>
      <point x="439" y="293" type="curve"/>
      <point x="411" y="322" type="line"/>
      <point x="380" y="277"/>
      <point x="358" y="263"/>
      <point x="325" y="263" type="curve" smooth="yes"/>
      <point x="264" y="263"/>
      <point x="196" y="328"/>
      <point x="131" y="328" type="curve" smooth="yes"/>
      <point x="87" y="328"/>
      <point x="51" y="304"/>
      <point x="22" y="255" type="curve"/>
    </contour>
  </outline>
</glyph>
<glyph name="sterling" format="1">
  <advance width="507"/>
  <unicode hex="00A3"/>
  <outline>
    <contour>
      <point x="331" y="306" type="line"/>
      <point x="331" y="329" type="line"/>
      <point x="36" y="329" type="line"/>
      <point x="36" y="306" type="line"/>
    </contour>
    <contour>
      <point x="167" y="607"/>
      <point x="116" y="547"/>
      <point x="116" y="410" type="curve" smooth="yes"/>
      <point x="116" y="156" type="line" smooth="yes"/>
      <point x="116" y="94"/>
      <point x="81" y="34"/>
      <point x="28" y="1" type="curve"/>
      <point x="30" y="-3" type="line"/>
      <point x="50" y="-2"/>
      <point x="93" y="0"/>
      <point x="120" y="0" type="curve" smooth="yes"/>
      <point x="376" y="0" type="line" smooth="yes"/>
      <point x="412" y="-1"/>
      <point x="437" y="-3"/>
      <point x="454" y="-3" type="curve"/>
      <point x="464" y="168" type="line"/>
      <point x="439" y="168" type="line"/>
      <point x="439" y="94"/>
      <point x="413" y="73"/>
      <point x="308" y="73" type="curve" smooth="yes"/>
      <point x="111" y="73" type="line"/>
      <point x="135" y="59" type="line"/>
      <point x="171" y="89"/>
      <point x="212" y="153"/>
      <point x="212" y="226" type="curve" smooth="yes"/>
      <point x="212" y="317" type="line" smooth="yes"/>
      <point x="212" y="375"/>
      <point x="195" y="461"/>
      <point x="195" y="487" type="curve" smooth="yes"/>
      <point x="195" y="547"/>
      <point x="233" y="584"/>
      <point x="286" y="584" type="curve" smooth="yes"/>
      <point x="324" y="584"/>
      <point x="343" y="572"/>
      <point x="343" y="547" type="curve"/>
      <point x="343" y="536"/>
      <point x="335" y="528"/>
      <point x="335" y="514" type="curve" smooth="yes"/>
      <point x="335" y="495"/>
      <point x="356" y="480"/>
      <point x="376" y="480" type="curve" smooth="yes"/>
      <point x="397" y="480"/>
      <point x="417" y="499"/>
      <point x="417" y="520" type="curve" smooth="yes"/>
      <point x="417" y="569"/>
      <point x="363" y="607"/>
      <point x="292" y="607" type="curve" smooth="yes"/>
    </contour>
  </outline>
</glyph>
<glyph name="brokenbar" format="1">
  <advance width="232"/>
  <unicode hex="00A6"/>
  <outline>
    <contour>
      <point x="97" y="-231" type="line"/>
      <point x="135" y="-231" type="line"/>
      <point x="135" y="113" type="line"/>
      <point x="97" y="113" type="line"/>
    </contour>
    <contour>
      <point x="135" y="265" type="line"/>
      <point x="135" y="607" type="line"/>
      <point x="97" y="607" type="line"/>
      <point x="97" y="265" type="line"/>
    </contour>
  </outline>
</glyph>
<glyph name="section" format="1">
  <advance width="437"/>
  <unicode hex="00A7"/>
  <outline>
    <contour>
      <point x="131" y="607"/>
      <point x="62" y="554"/>
      <point x="62" y="476" type="curve" smooth="yes"/>
      <point x="62" y="424"/>
      <point x="93" y="387"/>
      <point x="171" y="333" type="curve" smooth="yes"/>
      <point x="299" y="245" type="line" smooth="yes"/>
      <point x="334" y="221"/>
      <point x="342" y="204"/>
      <point x="342" y="182" type="curve" smooth="yes"/>
      <point x="342" y="153"/>
      <point x="328" y="135"/>
      <point x="287" y="119" type="curve"/>
      <point x="309" y="103" type="line"/>
      <point x="374" y="123"/>
      <point x="407" y="161"/>
      <point x="407" y="218" type="curve" smooth="yes"/>
      <point x="407" y="273"/>
      <point x="376" y="304"/>
      <point x="319" y="343" type="curve" smooth="yes"/>
      <point x="195" y="428" type="line" smooth="yes"/>
      <point x="161" y="451"/>
      <point x="137" y="472"/>
      <point x="137" y="509" type="curve" smooth="yes"/>
      <point x="137" y="558"/>
      <point x="180" y="584"/>
      <point x="227" y="584" type="curve" smooth="yes"/>
      <point x="266" y="584"/>
      <point x="312" y="566"/>
      <point x="312" y="540" type="curve" smooth="yes"/>
      <point x="312" y="523"/>
      <point x="292" y="518"/>
      <point x="292" y="495" type="curve" smooth="yes"/>
      <point x="292" y="471"/>
      <point x="312" y="458"/>
      <point x="334" y="458" type="curve" smooth="yes"/>
      <point x="363" y="458"/>
      <point x="386" y="480"/>
      <point x="386" y="515" type="curve" smooth="yes"/>
      <point x="386" y="572"/>
      <point x="323" y="607"/>
      <point x="237" y="607" type="curve" smooth="yes"/>
    </contour>
    <contour>
      <point x="68" y="349"/>
      <point x="35" y="311"/>
      <point x="35" y="254" type="curve" smooth="yes"/>
      <point x="35" y="199"/>
      <point x="66" y="168"/>
      <point x="123" y="129" type="curve" smooth="yes"/>
      <point x="247" y="44" type="line" smooth="yes"/>
      <point x="281" y="21"/>
      <point x="305" y="0"/>
      <point x="305" y="-37" type="curve" smooth="yes"/>
      <point x="305" y="-86"/>
      <point x="262" y="-112"/>
      <point x="215" y="-112" type="curve" smooth="yes"/>
      <point x="176" y="-112"/>
      <point x="130" y="-94"/>
      <point x="130" y="-68" type="curve" smooth="yes"/>
      <point x="130" y="-51"/>
      <point x="150" y="-46"/>
      <point x="150" y="-23" type="curve" smooth="yes"/>
      <point x="150" y="1"/>
      <point x="130" y="14"/>
      <point x="108" y="14" type="curve" smooth="yes"/>
      <point x="79" y="14"/>
      <point x="56" y="-8"/>
      <point x="56" y="-43" type="curve" smooth="yes"/>
      <point x="56" y="-100"/>
      <point x="119" y="-135"/>
      <point x="205" y="-135" type="curve" smooth="yes"/>
      <point x="311" y="-135"/>
      <point x="380" y="-82"/>
      <point x="380" y="-4" type="curve" smooth="yes"/>
      <point x="380" y="48"/>
      <point x="349" y="85"/>
      <point x="271" y="139" type="curve" smooth="yes"/>
      <point x="143" y="227" type="line" smooth="yes"/>
      <point x="108" y="251"/>
      <point x="100" y="268"/>
      <point x="100" y="290" type="curve" smooth="yes"/>
      <point x="100" y="319"/>
      <point x="114" y="337"/>
      <point x="155" y="353" type="curve"/>
      <point x="133" y="369" type="line"/>
    </contour>
  </outline>
</glyph>
<glyph name="ordfeminine" format="1">
  <advance width="350"/>
  <unicode hex="00AA"/>
  <outline>
    <contour>
      <point x="44" y="365"/>
      <point x="72" y="342"/>
      <point x="128" y="342" type="curve" smooth="yes"/>
      <point x="171" y="342"/>
      <point x="199" y="360"/>
      <point x="214" y="397" type="curve"/>
      <point x="211" y="350" type="line"/>
      <point x="306" y="350" type="line"/>
      <point x="306" y="374" type="line"/>
      <point x="276" y="373" type="line" smooth="yes"/>
      <point x="272" y="373"/>
      <point x="270" y="375"/>
      <point x="270" y="380" type="curve" smooth="yes"/>
      <point x="270" y="527" type="line" smooth="yes"/>
      <point x="270" y="588"/>
      <point x="235" y="615"/>
      <point x="158" y="615" type="curve" smooth="yes"/>
      <point x="89" y="615"/>
      <point x="55" y="594"/>
      <point x="55" y="561" type="curve" smooth="yes"/>
      <point x="55" y="540"/>
      <point x="66" y="529"/>
      <point x="87" y="529" type="curve" smooth="yes"/>
      <point x="107" y="529"/>
      <point x="117" y="539"/>
      <point x="117" y="558" type="curve" smooth="yes"/>
      <point x="117" y="585"/>
      <point x="119" y="592"/>
      <point x="158" y="592" type="curve" smooth="yes"/>
      <point x="193" y="592"/>
      <point x="210" y="575"/>
      <point x="210" y="542" type="curve" smooth="yes"/>
      <point x="210" y="505" type="line"/>
      <point x="94" y="505"/>
      <point x="44" y="475"/>
      <point x="44" y="411" type="curve" smooth="yes"/>
    </contour>
    <contour>
      <point x="107" y="461"/>
      <point x="138" y="482"/>
      <point x="210" y="482" type="curve"/>
      <point x="210" y="457" type="line" smooth="yes"/>
      <point x="210" y="410"/>
      <point x="180" y="373"/>
      <point x="145" y="373" type="curve" smooth="yes"/>
      <point x="122" y="373"/>
      <point x="107" y="387"/>
      <point x="107" y="416" type="curve" smooth="yes"/>
    </contour>
  </outline>
</glyph>
<glyph name="logicalnot" format="1">
  <advance width="460"/>
  <unicode hex="00AC"/>
  <outline>
    <contour>
      <point x="397" y="319" type="line"/>
      <point x="397" y="146" type="line"/>
      <point x="440" y="146" type="line"/>
      <point x="440" y="360" type="line"/>
      <point x="20" y="360" type="line"/>
      <point x="20" y="319" type="line"/>
    </contour>
  </outline>
</glyph>
<glyph name="registered" format="1">
  <advance width="492"/>
  <unicode hex="00AE"/>
  <outline>
    <contour>
      <point x="135" y="607"/>
      <point x="46" y="525"/>
      <point x="46" y="413" type="curve" smooth="yes"/>
      <point x="46" y="303"/>
      <point x="135" y="220"/>
      <point x="246" y="220" type="curve" smooth="yes"/>
      <point x="355" y="220"/>
      <point x="446" y="303"/>
      <point x="446" y="413" type="curve" smooth="yes"/>
      <point x="446" y="525"/>
      <point x="355" y="607"/>
      <point x="246" y="607" type="curve" smooth="yes"/>
    </contour>
    <contour>
      <point x="342" y="581"/>
      <point x="416" y="512"/>
      <point x="416" y="413" type="curve" smooth="yes"/>
      <point x="416" y="315"/>
      <point x="342" y="246"/>
      <point x="245" y="246" type="curve" smooth="yes"/>
      <point x="148" y="246"/>
      <point x="75" y="315"/>
      <point x="75" y="413" type="curve" smooth="yes"/>
      <point x="75" y="512"/>
      <point x="148" y="581"/>
      <point x="245" y="581" type="curve" smooth="yes"/>
    </contour>
    <contour>
      <point x="151" y="496" type="line"/>
      <point x="161" y="496" type="line" smooth="yes"/>
      <point x="167" y="496"/>
      <point x="169" y="493"/>
      <point x="169" y="489" type="curve" smooth="yes"/>
      <point x="169" y="342" type="line" smooth="yes"/>
      <point x="169" y="337"/>
      <point x="167" y="335"/>
      <point x="163" y="335" type="curve" smooth="yes"/>
      <point x="151" y="335" type="line"/>
      <point x="151" y="317" type="line"/>
      <point x="252" y="317" type="line"/>
      <point x="252" y="335" type="line"/>
      <point x="235" y="335" type="line" smooth="yes"/>
      <point x="231" y="335"/>
      <point x="228" y="337"/>
      <point x="228" y="342" type="curve" smooth="yes"/>
      <point x="228" y="400" type="line"/>
      <point x="238" y="400" type="line" smooth="yes"/>
      <point x="257" y="400"/>
      <point x="277" y="389"/>
      <point x="277" y="362" type="curve" smooth="yes"/>
      <point x="277" y="348" type="line" smooth="yes"/>
      <point x="277" y="326"/>
      <point x="292" y="317"/>
      <point x="318" y="317" type="curve" smooth="yes"/>
      <point x="355" y="317" type="line"/>
      <point x="355" y="334" type="line"/>
      <point x="337" y="329"/>
      <point x="335" y="344"/>
      <point x="335" y="356" type="curve" smooth="yes"/>
      <point x="335" y="392"/>
      <point x="301" y="411"/>
      <point x="274" y="411" type="curve"/>
      <point x="309" y="417"/>
      <point x="330" y="437"/>
      <point x="330" y="466" type="curve" smooth="yes"/>
      <point x="330" y="499"/>
      <point x="305" y="514"/>
      <point x="253" y="514" type="curve" smooth="yes"/>
      <point x="151" y="514" type="line"/>
    </contour>
    <contour>
      <point x="262" y="496"/>
      <point x="272" y="485"/>
      <point x="272" y="459" type="curve" smooth="yes"/>
      <point x="272" y="436"/>
      <point x="263" y="419"/>
      <point x="247" y="419" type="curve" smooth="yes"/>
      <point x="228" y="419" type="line"/>
      <point x="228" y="493" type="line" smooth="yes"/>
      <point x="228" y="495"/>
      <point x="230" y="496"/>
      <point x="233" y="496" type="curve" smooth="yes"/>
      <point x="242" y="496" type="line" smooth="yes"/>
    </contour>
  </outline>
</glyph>
<glyph name="degree" format="1">
  <advance width="374"/>
  <unicode hex="00B0"/>
  <outline>
    <contour>
      <point x="89" y="455"/>
      <point x="133" y="411"/>
      <point x="187" y="411" type="curve" smooth="yes"/>
      <point x="241" y="411"/>
      <point x="285" y="455"/>
      <point x="285" y="509" type="curve" smooth="yes"/>
      <point x="285" y="563"/>
      <point x="241" y="607"/>
      <point x="187" y="607" type="curve" smooth="yes"/>
      <point x="133" y="607"/>
      <point x="89" y="563"/>
      <point x="89" y="509" type="curve" smooth="yes"/>
    </contour>
    <contour>
      <point x="131" y="540"/>
      <point x="156" y="565"/>
      <point x="187" y="565" type="curve" smooth="yes"/>
      <point x="218" y="565"/>
      <point x="243" y="540"/>
      <point x="243" y="509" type="curve" smooth="yes"/>
      <point x="243" y="478"/>
      <point x="218" y="453"/>
      <point x="187" y="453" type="curve" smooth="yes"/>
      <point x="156" y="453"/>
      <point x="131" y="478"/>
      <point x="131" y="509" type="curve" smooth="yes"/>
    </contour>
  </outline>
</glyph>
<glyph name="twosuperior" format="1">
  <advance width="262"/>
  <unicode hex="00B2"/>
  <outline>
    <contour>
      <point x="217" y="460"/>
      <point x="201" y="454"/>
      <point x="165" y="454" type="curve" smooth="yes"/>
      <point x="49" y="454" type="line"/>
      <point x="49" y="441" type="line"/>
      <point x="126" y="488" type="line" smooth="yes"/>
      <point x="219" y="545"/>
      <point x="238" y="566"/>
      <point x="238" y="607" type="curve" smooth="yes"/>
      <point x="238" y="655"/>
      <point x="189" y="678"/>
      <point x="128" y="678" type="curve" smooth="yes"/>
      <point x="63" y="678"/>
      <point x="25" y="651"/>
      <point x="25" y="619" type="curve" smooth="yes"/>
      <point x="25" y="600"/>
      <point x="37" y="583"/>
      <point x="63" y="583" type="curve" smooth="yes"/>
      <point x="82" y="583"/>
      <point x="98" y="592"/>
      <point x="98" y="609" type="curve" smooth="yes"/>
      <point x="98" y="619"/>
      <point x="93" y="629"/>
      <point x="93" y="638" type="curve" smooth="yes"/>
      <point x="93" y="652"/>
      <point x="107" y="660"/>
      <point x="125" y="660" type="curve" smooth="yes"/>
      <point x="146" y="660"/>
      <point x="163" y="649"/>
      <point x="163" y="613" type="curve" smooth="yes"/>
      <point x="163" y="566"/>
      <point x="145" y="542"/>
      <point x="85" y="493" type="curve" smooth="yes"/>
      <point x="27" y="447" type="line"/>
      <point x="29" y="403" type="line"/>
      <point x="200" y="403" type="line" smooth="yes"/>
      <point x="210" y="403"/>
      <point x="227" y="402"/>
      <point x="231" y="401" type="curve"/>
      <point x="231" y="413"/>
      <point x="234" y="452"/>
      <point x="241" y="480" type="curve"/>
      <point x="221" y="480" type="line"/>
    </contour>
  </outline>
</glyph>
<glyph name="threesuperior" format="1">
  <advance width="250"/>
  <unicode hex="00B3"/>
  <outline>
    <contour>
      <point x="143" y="530"/>
      <point x="170" y="516"/>
      <point x="170" y="475" type="curve" smooth="yes"/>
      <point x="170" y="441"/>
      <point x="149" y="416"/>
      <point x="114" y="416" type="curve" smooth="yes"/>
      <point x="97" y="416"/>
      <point x="77" y="421"/>
      <point x="77" y="438" type="curve" smooth="yes"/>
      <point x="77" y="444"/>
      <point x="81" y="453"/>
      <point x="81" y="459" type="curve" smooth="yes"/>
      <point x="81" y="476"/>
      <point x="67" y="486"/>
      <point x="47" y="486" type="curve" smooth="yes"/>
      <point x="22" y="486"/>
      <point x="9" y="471"/>
      <point x="9" y="453" type="curve" smooth="yes"/>
      <point x="9" y="419"/>
      <point x="56" y="397"/>
      <point x="115" y="397" type="curve" smooth="yes"/>
      <point x="189" y="397"/>
      <point x="244" y="430"/>
      <point x="244" y="479" type="curve" smooth="yes"/>
      <point x="244" y="523"/>
      <point x="202" y="546"/>
      <point x="129" y="547" type="curve"/>
      <point x="129" y="550" type="line"/>
      <point x="183" y="556"/>
      <point x="227" y="580"/>
      <point x="227" y="619" type="curve" smooth="yes"/>
      <point x="227" y="659"/>
      <point x="178" y="678"/>
      <point x="122" y="678" type="curve" smooth="yes"/>
      <point x="68" y="678"/>
      <point x="16" y="659"/>
      <point x="16" y="623" type="curve" smooth="yes"/>
      <point x="16" y="607"/>
      <point x="27" y="590"/>
      <point x="53" y="590" type="curve" smooth="yes"/>
      <point x="70" y="590"/>
      <point x="88" y="597"/>
      <point x="88" y="616" type="curve" smooth="yes"/>
      <point x="88" y="625"/>
      <point x="84" y="630"/>
      <point x="84" y="638" type="curve" smooth="yes"/>
      <point x="84" y="652"/>
      <point x="98" y="660"/>
      <point x="115" y="660" type="curve" smooth="yes"/>
      <point x="140" y="660"/>
      <point x="152" y="642"/>
      <point x="152" y="621" type="curve" smooth="yes"/>
      <point x="152" y="576"/>
      <point x="109" y="553"/>
      <point x="67" y="553" type="curve"/>
      <point x="67" y="537" type="line"/>
    </contour>
  </outline>
</glyph>
<glyph name="paragraph" format="1">
  <advance width="499"/>
  <unicode hex="00B6"/>
  <outline>
    <contour>
      <point x="30" y="343"/>
      <point x="104" y="288"/>
      <point x="228" y="288" type="curve"/>
      <point x="228" y="-269" type="line"/>
      <point x="263" y="-269" type="line"/>
      <point x="263" y="528" type="line" smooth="yes"/>
      <point x="263" y="555"/>
      <point x="278" y="566"/>
      <point x="301" y="566" type="curve" smooth="yes"/>
      <point x="342" y="566" type="line"/>
      <point x="342" y="-269" type="line"/>
      <point x="377" y="-269" type="line"/>
      <point x="377" y="566" type="line"/>
      <point x="478" y="566" type="line"/>
      <point x="478" y="597" type="line"/>
      <point x="228" y="597" type="line" smooth="yes"/>
      <point x="104" y="597"/>
      <point x="30" y="537"/>
      <point x="30" y="442" type="curve" smooth="yes"/>
    </contour>
  </outline>
</glyph>
<glyph name="cedilla" format="1">
  <advance width="233"/>
  <unicode hex="00B8"/>
  <outline>
    <contour>
      <point x="58" y="-213"/>
      <point x="87" y="-214"/>
      <point x="104" y="-214" type="curve" smooth="yes"/>
      <point x="165" y="-214"/>
      <point x="198" y="-178"/>
      <point x="198" y="-122" type="curve" smooth="yes"/>
      <point x="198" y="-70"/>
      <point x="112" y="-85"/>
      <point x="112" y="-62" type="curve" smooth="yes"/>
      <point x="112" y="-57"/>
      <point x="114" y="-50"/>
      <point x="118" y="-43" type="curve" smooth="yes"/>
      <point x="145" y="0" type="line"/>
      <point x="112" y="0" type="line"/>
      <point x="71" y="-52" type="line" smooth="yes"/>
      <point x="67" y="-56"/>
      <point x="65" y="-60"/>
      <point x="65" y="-65" type="curve" smooth="yes"/>
      <point x="65" y="-70"/>
      <point x="69" y="-75"/>
      <point x="76" y="-80" type="curve" smooth="yes"/>
      <point x="99" y="-94" type="line" smooth="yes"/>
      <point x="116" y="-103"/>
      <point x="133" y="-116"/>
      <point x="133" y="-133" type="curve" smooth="yes"/>
      <point x="133" y="-164"/>
      <point x="108" y="-187"/>
      <point x="77" y="-187" type="curve" smooth="yes"/>
      <point x="62" y="-187"/>
      <point x="50" y="-183"/>
      <point x="42" y="-174" type="curve"/>
      <point x="35" y="-198" type="line"/>
    </contour>
    <contour>
      <point x="120" y="0" type="move" name="_bottom"/>
    </contour>
  </outline>
</glyph>
<glyph name="onesuperior" format="1">
  <advance width="187"/>
  <unicode hex="00B9"/>
  <outline>
    <contour>
      <point x="126" y="682" type="line"/>
      <point x="101" y="665"/>
      <point x="68" y="644"/>
      <point x="23" y="635" type="curve"/>
      <point x="29" y="612" type="line"/>
      <point x="59" y="620" type="line" smooth="yes"/>
      <point x="64" y="622"/>
      <point x="68" y="618"/>
      <point x="68" y="613" type="curve" smooth="yes"/>
      <point x="68" y="433" type="line" smooth="yes"/>
      <point x="68" y="427"/>
      <point x="65" y="424"/>
      <point x="59" y="424" type="curve" smooth="yes"/>
      <point x="33" y="424" type="line"/>
      <point x="33" y="403" type="line"/>
      <point x="171" y="403" type="line"/>
      <point x="171" y="424" type="line"/>
      <point x="145" y="424" type="line" smooth="yes"/>
      <point x="139" y="424"/>
      <point x="137" y="427"/>
      <point x="137" y="433" type="curve" smooth="yes"/>
      <point x="137" y="682" type="line"/>
    </contour>
  </outline>
</glyph>
<glyph name="onequarter" format="1">
  <advance width="559"/>
  <unicode hex="00BC"/>
  <outline>
    <contour>
      <point x="414" y="65" type="line"/>
      <point x="414" y="30" type="line" smooth="yes"/>
      <point x="414" y="24"/>
      <point x="411" y="21"/>
      <point x="405" y="21" type="curve" smooth="yes"/>
      <point x="372" y="21" type="line"/>
      <point x="372" y="0" type="line"/>
      <point x="512" y="0" type="line"/>
      <point x="512" y="21" type="line"/>
      <point x="492" y="21" type="line" smooth="yes"/>
      <point x="486" y="21"/>
      <point x="483" y="24"/>
      <point x="483" y="30" type="curve" smooth="yes"/>
      <point x="483" y="65" type="line"/>
      <point x="519" y="65" type="line"/>
      <point x="519" y="102" type="line"/>
      <point x="483" y="102" type="line"/>
      <point x="483" y="274" type="line"/>
      <point x="450" y="274" type="line"/>
      <point x="287" y="98" type="line"/>
      <point x="287" y="65" type="line"/>
    </contour>
    <contour>
      <point x="426" y="211" type="line"/>
      <point x="414" y="216" type="line"/>
      <point x="414" y="102" type="line"/>
      <point x="304" y="102" type="line"/>
      <point x="311" y="88" type="line"/>
    </contour>
    <component base="fraction" xOffset="194"/>
    <component base="uni00B9" xOffset="29" yOffset="-71"/>
  </outline>
</glyph>
<glyph name="questiondown" format="1">
  <advance width="400"/>
  <unicode hex="00BF"/>
  <outline>
    <contour>
      <point x="171" y="197" type="line"/>
      <point x="204" y="179"/>
      <point x="218" y="152"/>
      <point x="218" y="125" type="curve" smooth="yes"/>
      <point x="218" y="28"/>
      <point x="36" y="-15"/>
      <point x="36" y="-126" type="curve" smooth="yes"/>
      <point x="36" y="-195"/>
      <point x="105" y="-235"/>
      <point x="207" y="-235" type="curve" smooth="yes"/>
      <point x="292" y="-235"/>
      <point x="380" y="-207"/>
      <point x="380" y="-150" type="curve" smooth="yes"/>
      <point x="380" y="-129"/>
      <point x="368" y="-103"/>
      <point x="333" y="-103" type="curve" smooth="yes"/>
      <point x="315" y="-103"/>
      <point x="297" y="-110"/>
      <point x="297" y="-131" type="curve" smooth="yes"/>
      <point x="297" y="-145"/>
      <point x="306" y="-153"/>
      <point x="306" y="-166" type="curve" smooth="yes"/>
      <point x="306" y="-194"/>
      <point x="265" y="-208"/>
      <point x="223" y="-208" type="curve" smooth="yes"/>
      <point x="157" y="-208"/>
      <point x="127" y="-174"/>
      <point x="127" y="-138" type="curve" smooth="yes"/>
      <point x="127" y="-54"/>
      <point x="291" y="32"/>
      <point x="291" y="108" type="curve" smooth="yes"/>
      <point x="291" y="157"/>
      <point x="223" y="206"/>
      <point x="183" y="216" type="curve"/>
    </contour>
    <contour>
      <point x="186" y="445"/>
      <point x="155" y="424"/>
      <point x="155" y="387" type="curve" smooth="yes"/>
      <point x="155" y="349"/>
      <point x="188" y="330"/>
      <point x="220" y="330" type="curve" smooth="yes"/>
      <point x="258" y="330"/>
      <point x="285" y="358"/>
      <point x="285" y="390" type="curve" smooth="yes"/>
      <point x="285" y="427"/>
      <point x="250" y="445"/>
      <point x="219" y="445" type="curve" smooth="yes"/>
    </contour>
  </outline>
</glyph>
<glyph name="multiply" format="1">
  <advance width="460"/>
  <unicode hex="00D7"/>
  <outline>
    <contour>
      <point x="94" y="103" type="line"/>
      <point x="230" y="239" type="line"/>
      <point x="368" y="102" type="line"/>
      <point x="396" y="130" type="line"/>
      <point x="259" y="268" type="line"/>
      <point x="396" y="404" type="line"/>
      <point x="366" y="433" type="line"/>
      <point x="229" y="296" type="line"/>
      <point x="95" y="432" type="line"/>
      <point x="66" y="403" type="line"/>
      <point x="202" y="268" type="line"/>
      <point x="64" y="131" type="line"/>
    </contour>
  </outline>
</glyph>
<glyph name="Oslash" format="1">
  <advance width="664"/>
  <unicode hex="00D8"/>
  <outline>
    <contour>
      <point x="572" y="665" type="line"/>
      <point x="535" y="685" type="line"/>
      <point x="89" y="-75" type="line"/>
      <point x="126" y="-92" type="line"/>
    </contour>
    <component base="O"/>
    <contour>
      <point x="332" y="598" type="move" name="top"/>
    </contour>
  </outline>
</glyph>
<glyph name="germandbls" format="1">
  <advance width="528"/>
  <unicode hex="00DF"/>
  <outline>
    <contour>
      <point x="144" y="737"/>
      <point x="84" y="669"/>
      <point x="84" y="512" type="curve" smooth="yes"/>
      <point x="84" y="48" type="line" smooth="yes"/>
      <point x="84" y="36"/>
      <point x="80" y="27"/>
      <point x="71" y="27" type="curve" smooth="yes"/>
      <point x="35" y="29" type="line"/>
      <point x="35" y="0" type="line"/>
      <point x="230" y="0" type="line"/>
      <point x="230" y="29" type="line"/>
      <point x="184" y="27" type="line" smooth="yes"/>
      <point x="175" y="27"/>
      <point x="170" y="37"/>
      <point x="170" y="48" type="curve" smooth="yes"/>
      <point x="170" y="434" type="line" smooth="yes"/>
      <point x="170" y="483"/>
      <point x="155" y="566"/>
      <point x="155" y="601" type="curve" smooth="yes"/>
      <point x="155" y="670"/>
      <point x="197" y="712"/>
      <point x="258" y="712" type="curve" smooth="yes"/>
      <point x="322" y="712"/>
      <point x="359" y="671"/>
      <point x="359" y="612" type="curve" smooth="yes"/>
      <point x="359" y="559"/>
      <point x="335" y="540"/>
      <point x="291" y="506" type="curve" smooth="yes"/>
      <point x="228" y="457"/>
      <point x="210" y="430"/>
      <point x="210" y="386" type="curve" smooth="yes"/>
      <point x="210" y="347"/>
      <point x="244" y="314"/>
      <point x="289" y="281" type="curve" smooth="yes"/>
      <point x="375" y="219" type="line" smooth="yes"/>
      <point x="423" y="184"/>
      <point x="450" y="142"/>
      <point x="450" y="99" type="curve" smooth="yes"/>
      <point x="450" y="43"/>
      <point x="417" y="21"/>
      <point x="370" y="21" type="curve" smooth="yes"/>
      <point x="347" y="21"/>
      <point x="343" y="29"/>
      <point x="343" y="40" type="curve" smooth="yes"/>
      <point x="343" y="48"/>
      <point x="345" y="58"/>
      <point x="345" y="67" type="curve" smooth="yes"/>
      <point x="345" y="88"/>
      <point x="332" y="107"/>
      <point x="300" y="107" type="curve" smooth="yes"/>
      <point x="271" y="107"/>
      <point x="252" y="87"/>
      <point x="252" y="57" type="curve" smooth="yes"/>
      <point x="252" y="19"/>
      <point x="305" y="-8"/>
      <point x="374" y="-8" type="curve" smooth="yes"/>
      <point x="451" y="-8"/>
      <point x="529" y="44"/>
      <point x="529" y="139" type="curve" smooth="yes"/>
      <point x="529" y="195"/>
      <point x="496" y="238"/>
      <point x="440" y="277" type="curve"/>
      <point x="353" y="340" type="line"/>
      <point x="314" y="367"/>
      <point x="289" y="396"/>
      <point x="289" y="427" type="curve" smooth="yes"/>
      <point x="289" y="470"/>
      <point x="309" y="487"/>
      <point x="344" y="509" type="curve" smooth="yes"/>
      <point x="394" y="540"/>
      <point x="438" y="569"/>
      <point x="438" y="622" type="curve" smooth="yes"/>
      <point x="438" y="693"/>
      <point x="366" y="737"/>
      <point x="257" y="737" type="curve" smooth="yes"/>
    </contour>
  </outline>
</glyph>
<glyph name="ae" format="1">
  <advance width="710"/>
  <unicode hex="00E6"/>
  <outline>
    <contour>
      <point x="436" y="430"/>
      <point x="391" y="416"/>
      <point x="352" y="381" type="curve"/>
      <point x="325" y="414"/>
      <point x="278" y="430"/>
      <point x="213" y="430" type="curve" smooth="yes"/>
      <point x="113" y="430"/>
      <point x="51" y="391"/>
      <point x="51" y="336" type="curve" smooth="yes"/>
      <point x="51" y="309"/>
      <point x="66" y="289"/>
      <point x="95" y="289" type="curve" smooth="yes"/>
      <point x="117" y="289"/>
      <point x="134" y="300"/>
      <point x="134" y="323" type="curve" smooth="yes"/>
      <point x="134" y="340"/>
      <point x="125" y="345"/>
      <point x="125" y="361" type="curve" smooth="yes"/>
      <point x="125" y="382"/>
      <point x="140" y="403"/>
      <point x="201" y="403" type="curve" smooth="yes"/>
      <point x="266" y="403"/>
      <point x="294" y="379"/>
      <point x="294" y="316" type="curve" smooth="yes"/>
      <point x="294" y="242" type="line"/>
      <point x="115" y="242"/>
      <point x="27" y="208"/>
      <point x="27" y="98" type="curve" smooth="yes"/>
      <point x="27" y="26"/>
      <point x="89" y="-5"/>
      <point x="172" y="-5" type="curve" smooth="yes"/>
      <point x="244" y="-5"/>
      <point x="286" y="26"/>
      <point x="318" y="87" type="curve"/>
      <point x="347" y="27"/>
      <point x="401" y="-10"/>
      <point x="508" y="-10" type="curve" smooth="yes"/>
      <point x="579" y="-10"/>
      <point x="645" y="28"/>
      <point x="674" y="92" type="curve"/>
      <point x="650" y="110" type="line"/>
      <point x="626" y="61"/>
      <point x="566" y="23"/>
      <point x="514" y="23" type="curve" smooth="yes"/>
      <point x="426" y="23"/>
      <point x="381" y="100"/>
      <point x="381" y="217" type="curve"/>
      <point x="675" y="217" type="line"/>
      <point x="675" y="354"/>
      <point x="617" y="430"/>
      <point x="500" y="430" type="curve" smooth="yes"/>
    </contour>
    <contour>
      <point x="294" y="177" type="line" smooth="yes"/>
      <point x="294" y="89"/>
      <point x="244" y="28"/>
      <point x="191" y="28" type="curve" smooth="yes"/>
      <point x="150" y="28"/>
      <point x="118" y="46"/>
      <point x="118" y="93" type="curve" smooth="yes"/>
      <point x="118" y="174"/>
      <point x="169" y="217"/>
      <point x="294" y="217" type="curve"/>
    </contour>
    <contour>
      <point x="570" y="403"/>
      <point x="590" y="342"/>
      <point x="590" y="270" type="curve" smooth="yes"/>
      <point x="590" y="258"/>
      <point x="588" y="242"/>
      <point x="580" y="242" type="curve" smooth="yes"/>
      <point x="381" y="242" type="line"/>
      <point x="381" y="350"/>
      <point x="417" y="403"/>
      <point x="501" y="403" type="curve" smooth="yes"/>
    </contour>
    <contour>
      <point x="352" y="420" type="move" name="top"/>
    </contour>
  </outline>
</glyph>
<glyph name="divide" format="1">
  <advance width="460"/>
  <unicode hex="00F7"/>
  <outline>
    <contour>
      <point x="441" y="244" type="line"/>
      <point x="441" y="295" type="line"/>
      <point x="19" y="295" type="line"/>
      <point x="19" y="244" type="line"/>
    </contour>
    <contour>
      <point x="175" y="68"/>
      <point x="197" y="50"/>
      <point x="229" y="50" type="curve" smooth="yes"/>
      <point x="261" y="50"/>
      <point x="284" y="68"/>
      <point x="284" y="97" type="curve" smooth="yes"/>
      <point x="284" y="128"/>
      <point x="260" y="145"/>
      <point x="229" y="145" type="curve" smooth="yes"/>
      <point x="198" y="145"/>
      <point x="175" y="126"/>
      <point x="175" y="97" type="curve" smooth="yes"/>
    </contour>
    <contour>
      <point x="175" y="407"/>
      <point x="197" y="389"/>
      <point x="229" y="389" type="curve" smooth="yes"/>
      <point x="261" y="389"/>
      <point x="284" y="407"/>
      <point x="284" y="436" type="curve" smooth="yes"/>
      <point x="284" y="467"/>
      <point x="260" y="484"/>
      <point x="229" y="484" type="curve" smooth="yes"/>
      <point x="198" y="484"/>
      <point x="175" y="467"/>
      <point x="175" y="436" type="curve" smooth="yes"/>
    </contour>
  </outline>
</glyph>
<glyph name="OE" format="1">
  <advance width="861"/>
  <unicode hex="0152"/>
  <outline>
    <contour>
      <point x="45" y="97"/>
      <point x="150" y="-10"/>
      <point x="339" y="-10" type="curve" smooth="yes"/>
      <point x="342" y="-10"/>
      <point x="407" y="0"/>
      <point x="479" y="0" type="curve" smooth="yes"/>
      <point x="729" y="0" type="line" smooth="yes"/>
      <point x="772" y="0"/>
      <point x="801" y="-1"/>
      <point x="817" y="-3" type="curve"/>
      <point x="817" y="179" type="line"/>
      <point x="790" y="179" type="line"/>
      <point x="790" y="82"/>
      <point x="742" y="27"/>
      <point x="650" y="27" type="curve" smooth="yes"/>
      <point x="535" y="27" type="line" smooth="yes"/>
      <point x="526" y="27"/>
      <point x="522" y="31"/>
      <point x="522" y="40" type="curve" smooth="yes"/>
      <point x="522" y="297" type="line"/>
      <point x="598" y="297" type="line" smooth="yes"/>
      <point x="639" y="297"/>
      <point x="675" y="255"/>
      <point x="675" y="195" type="curve"/>
      <point x="702" y="195" type="line"/>
      <point x="702" y="426" type="line"/>
      <point x="675" y="426" type="line"/>
      <point x="675" y="362"/>
      <point x="641" y="324"/>
      <point x="598" y="324" type="curve" smooth="yes"/>
      <point x="522" y="324" type="line"/>
      <point x="522" y="555" type="line" smooth="yes"/>
      <point x="522" y="564"/>
      <point x="526" y="569"/>
      <point x="535" y="569" type="curve" smooth="yes"/>
      <point x="629" y="569" type="line" smooth="yes"/>
      <point x="728" y="569"/>
      <point x="771" y="534"/>
      <point x="771" y="443" type="curve"/>
      <point x="798" y="443" type="line"/>
      <point x="798" y="597" type="line"/>
      <point x="471" y="597" type="line" smooth="yes"/>
      <point x="424" y="597"/>
      <point x="395" y="607"/>
      <point x="342" y="607" type="curve" smooth="yes"/>
      <point x="137" y="607"/>
      <point x="45" y="493"/>
      <point x="45" y="292" type="curve" smooth="yes"/>
    </contour>
    <contour>
      <point x="142" y="496"/>
      <point x="199" y="581"/>
      <point x="335" y="581" type="curve" smooth="yes"/>
      <point x="390" y="581"/>
      <point x="434" y="557"/>
      <point x="434" y="526" type="curve" smooth="yes"/>
      <point x="434" y="90" type="line" smooth="yes"/>
      <point x="434" y="56"/>
      <point x="415" y="18"/>
      <point x="335" y="18" type="curve" smooth="yes"/>
      <point x="198" y="18"/>
      <point x="142" y="99"/>
      <point x="142" y="296" type="curve" smooth="yes"/>
    </contour>
    <contour>
      <point x="433" y="598" type="move" name="top"/>
    </contour>
  </outline>
</glyph>
<glyph name="breve" format="1">
  <advance width="341"/>
  <unicode hex="02D8"/>
  <outline>
    <contour>
      <point x="268" y="642" type="line"/>
      <point x="259" y="606"/>
      <point x="230" y="568"/>
      <point x="170" y="568" type="curve" smooth="yes"/>
      <point x="107" y="568"/>
      <point x="82" y="606"/>
      <point x="73" y="642" type="curve"/>
      <point x="35" y="642" type="line"/>
      <point x="44" y="569"/>
      <point x="89" y="518"/>
      <point x="170" y="518" type="curve" smooth="yes"/>
      <point x="251" y="518"/>
      <point x="297" y="569"/>
      <point x="306" y="642" type="curve"/>
    </contour>
    <contour>
      <point x="170.5" y="420" type="move" name="_top"/>
    </contour>
  </outline>
</glyph>
<glyph name="hungarumlaut" format="1">
  <advance width="338"/>
  <unicode hex="02DD"/>
  <outline>
    <contour>
      <point x="36" y="506"/>
      <point x="35" y="503"/>
      <point x="35" y="501" type="curve" smooth="yes"/>
      <point x="35" y="497"/>
      <point x="38" y="493"/>
      <point x="44" y="493" type="curve" smooth="yes"/>
      <point x="49" y="493"/>
      <point x="54" y="494"/>
      <point x="59" y="499" type="curve" smooth="yes"/>
      <point x="154" y="592"/>
      <point x="169" y="607"/>
      <point x="177" y="616" type="curve" smooth="yes"/>
      <point x="181" y="621"/>
      <point x="183" y="625"/>
      <point x="183" y="628" type="curve" smooth="yes"/>
      <point x="183" y="634"/>
      <point x="179" y="638"/>
      <point x="174" y="640" type="curve" smooth="yes"/>
      <point x="166" y="644"/>
      <point x="138" y="653"/>
      <point x="131" y="653" type="curve" smooth="yes"/>
      <point x="126" y="653"/>
      <point x="124" y="652"/>
      <point x="118" y="644" type="curve" smooth="yes"/>
      <point x="113" y="638"/>
      <point x="102" y="619"/>
      <point x="38" y="510" type="curve" smooth="yes"/>
    </contour>
    <contour>
      <point x="156" y="506"/>
      <point x="155" y="503"/>
      <point x="155" y="501" type="curve" smooth="yes"/>
      <point x="155" y="497"/>
      <point x="158" y="493"/>
      <point x="164" y="493" type="curve" smooth="yes"/>
      <point x="169" y="493"/>
      <point x="174" y="494"/>
      <point x="179" y="499" type="curve" smooth="yes"/>
      <point x="274" y="592"/>
      <point x="289" y="607"/>
      <point x="297" y="616" type="curve" smooth="yes"/>
      <point x="301" y="621"/>
      <point x="303" y="625"/>
      <point x="303" y="628" type="curve" smooth="yes"/>
      <point x="303" y="634"/>
      <point x="299" y="638"/>
      <point x="294" y="640" type="curve" smooth="yes"/>
      <point x="286" y="644"/>
      <point x="258" y="653"/>
      <point x="251" y="653" type="curve" smooth="yes"/>
      <point x="246" y="653"/>
      <point x="244" y="652"/>
      <point x="238" y="644" type="curve" smooth="yes"/>
      <point x="233" y="638"/>
      <point x="222" y="619"/>
      <point x="158" y="510" type="curve" smooth="yes"/>
    </contour>
    <contour>
      <point x="149" y="420" type="move" name="_top"/>
    </contour>
  </outline>
</glyph>
<glyph name="Delta" format="1">
  <advance width="601"/>
  <unicode hex="0394"/>
  <outline>
    <contour>
      <point x="562" y="0" type="line"/>
      <point x="308" y="607" type="line"/>
      <point x="282" y="607" type="line"/>
      <point x="27" y="0" type="line"/>
    </contour>
    <contour>
      <point x="268" y="510" type="line"/>
      <point x="250" y="510" type="line"/>
      <point x="457" y="14" type="line"/>
      <point x="466" y="28" type="line"/>
      <point x="54" y="28" type="line"/>
      <point x="62" y="15" type="line"/>
    </contour>
  </outline>
</glyph>
<glyph name="endash" format="1">
  <advance width="477"/>
  <unicode hex="2013"/>
  <outline>
    <contour>
      <point x="459" y="191" type="line"/>
      <point x="459" y="230" type="line"/>
      <point x="18" y="230" type="line"/>
      <point x="18" y="191" type="line"/>
    </contour>
  </outline>
</glyph>
<glyph name="daggerdbl" format="1">
  <advance width="528"/>
  <unicode hex="2021"/>
  <outline>
    <contour>
      <point x="245" y="400" type="line"/>
      <point x="245" y="334"/>
      <point x="209" y="329"/>
      <point x="209" y="299" type="curve" smooth="yes"/>
      <point x="209" y="281"/>
      <point x="214" y="269"/>
      <point x="227" y="244" type="curve"/>
      <point x="290" y="244" type="line"/>
      <point x="303" y="269"/>
      <point x="309" y="281"/>
      <point x="309" y="299" type="curve" smooth="yes"/>
      <point x="309" y="329"/>
      <point x="273" y="335"/>
      <point x="273" y="400" type="curve"/>
    </contour>
    <contour>
      <point x="273" y="400" type="line"/>
      <point x="284" y="433"/>
      <point x="289" y="455"/>
      <point x="289" y="477" type="curve" smooth="yes"/>
      <point x="289" y="495"/>
      <point x="277" y="527"/>
      <point x="277" y="544" type="curve" smooth="yes"/>
      <point x="277" y="571"/>
      <point x="307" y="577"/>
      <point x="307" y="604" type="curve" smooth="yes"/>
      <point x="307" y="623"/>
      <point x="286" y="640"/>
      <point x="259" y="640" type="curve" smooth="yes"/>
      <point x="232" y="640"/>
      <point x="211" y="623"/>
      <point x="211" y="604" type="curve" smooth="yes"/>
      <point x="211" y="577"/>
      <point x="241" y="571"/>
      <point x="241" y="544" type="curve" smooth="yes"/>
      <point x="241" y="532"/>
      <point x="229" y="494"/>
      <point x="229" y="477" type="curve" smooth="yes"/>
      <point x="229" y="455"/>
      <point x="234" y="433"/>
      <point x="245" y="400" type="curve"/>
    </contour>
    <contour>
      <point x="265" y="402" type="line"/>
      <point x="284" y="392"/>
      <point x="299" y="390"/>
      <point x="314" y="390" type="curve" smooth="yes"/>
      <point x="337" y="390"/>
      <point x="358" y="397"/>
      <point x="382" y="397" type="curve" smooth="yes"/>
      <point x="417" y="397"/>
      <point x="414" y="358"/>
      <point x="443" y="358" type="curve" smooth="yes"/>
      <point x="474" y="358"/>
      <point x="483" y="379"/>
      <point x="483" y="408" type="curve" smooth="yes"/>
      <point x="483" y="437"/>
      <point x="456" y="458"/>
      <point x="423" y="458" type="curve" smooth="yes"/>
      <point x="372" y="458"/>
      <point x="367" y="416"/>
      <point x="263" y="416" type="curve"/>
      <point x="255" y="416" type="line"/>
      <point x="153" y="416"/>
      <point x="141" y="458"/>
      <point x="95" y="458" type="curve" smooth="yes"/>
      <point x="62" y="458"/>
      <point x="35" y="437"/>
      <point x="35" y="408" type="curve" smooth="yes"/>
      <point x="35" y="379"/>
      <point x="44" y="358"/>
      <point x="75" y="358" type="curve" smooth="yes"/>
      <point x="103" y="358"/>
      <point x="102" y="397"/>
      <point x="136" y="397" type="curve" smooth="yes"/>
      <point x="160" y="397"/>
      <point x="181" y="390"/>
      <point x="204" y="390" type="curve" smooth="yes"/>
      <point x="219" y="390"/>
      <point x="234" y="392"/>
      <point x="253" y="402" type="curve"/>
    </contour>
    <contour>
      <point x="273" y="153"/>
      <point x="309" y="159"/>
      <point x="309" y="189" type="curve" smooth="yes"/>
      <point x="309" y="207"/>
      <point x="303" y="219"/>
      <point x="290" y="244" type="curve"/>
      <point x="227" y="244" type="line"/>
      <point x="214" y="219"/>
      <point x="209" y="207"/>
      <point x="209" y="189" type="curve" smooth="yes"/>
      <point x="209" y="159"/>
      <point x="245" y="154"/>
      <point x="245" y="88" type="curve"/>
      <point x="273" y="88" type="line"/>
    </contour>
    <contour>
      <point x="234" y="55"/>
      <point x="229" y="33"/>
      <point x="229" y="11" type="curve" smooth="yes"/>
      <point x="229" y="-6"/>
      <point x="241" y="-44"/>
      <point x="241" y="-56" type="curve" smooth="yes"/>
      <point x="241" y="-83"/>
      <point x="211" y="-89"/>
      <point x="211" y="-116" type="curve" smooth="yes"/>
      <point x="211" y="-135"/>
      <point x="232" y="-152"/>
      <point x="259" y="-152" type="curve" smooth="yes"/>
      <point x="286" y="-152"/>
      <point x="307" y="-135"/>
      <point x="307" y="-116" type="curve" smooth="yes"/>
      <point x="307" y="-89"/>
      <point x="277" y="-83"/>
      <point x="277" y="-56" type="curve" smooth="yes"/>
      <point x="277" y="-39"/>
      <point x="289" y="-7"/>
      <point x="289" y="11" type="curve" smooth="yes"/>
      <point x="289" y="33"/>
      <point x="284" y="55"/>
      <point x="273" y="88" type="curve"/>
      <point x="245" y="88" type="line"/>
    </contour>
    <contour>
      <point x="234" y="96"/>
      <point x="219" y="98"/>
      <point x="204" y="98" type="curve" smooth="yes"/>
      <point x="181" y="98"/>
      <point x="160" y="91"/>
      <point x="136" y="91" type="curve" smooth="yes"/>
      <point x="102" y="91"/>
      <point x="103" y="130"/>
      <point x="75" y="130" type="curve" smooth="yes"/>
      <point x="44" y="130"/>
      <point x="35" y="109"/>
      <point x="35" y="80" type="curve" smooth="yes"/>
      <point x="35" y="51"/>
      <point x="62" y="30"/>
      <point x="95" y="30" type="curve" smooth="yes"/>
      <point x="141" y="30"/>
      <point x="153" y="72"/>
      <point x="255" y="72" type="curve"/>
      <point x="263" y="72" type="line"/>
      <point x="367" y="72"/>
      <point x="372" y="30"/>
      <point x="423" y="30" type="curve" smooth="yes"/>
      <point x="456" y="30"/>
      <point x="483" y="51"/>
      <point x="483" y="80" type="curve" smooth="yes"/>
      <point x="483" y="109"/>
      <point x="474" y="130"/>
      <point x="443" y="130" type="curve" smooth="yes"/>
      <point x="414" y="130"/>
      <point x="417" y="91"/>
      <point x="382" y="91" type="curve" smooth="yes"/>
      <point x="358" y="91"/>
      <point x="337" y="98"/>
      <point x="314" y="98" type="curve" smooth="yes"/>
      <point x="299" y="98"/>
      <point x="284" y="96"/>
      <point x="265" y="86" type="curve"/>
      <point x="253" y="86" type="line"/>
    </contour>
  </outline>
</glyph>
<glyph name="bullet" format="1">
  <advance width="469"/>
  <unicode hex="2022"/>
  <outline>
    <contour>
      <point x="105" y="179"/>
      <point x="158" y="131"/>
      <point x="234" y="131" type="curve" smooth="yes"/>
      <point x="305" y="131"/>
      <point x="362" y="178"/>
      <point x="362" y="247" type="curve" smooth="yes"/>
      <point x="362" y="316"/>
      <point x="306" y="363"/>
      <point x="234" y="363" type="curve" smooth="yes"/>
      <point x="162" y="363"/>
      <point x="105" y="316"/>
      <point x="105" y="247" type="curve" smooth="yes"/>
    </contour>
  </outline>
</glyph>
<glyph name="trademark" format="1">
  <advance width="758"/>
  <unicode hex="2122"/>
  <outline>
    <contour>
      <point x="28" y="523" type="line"/>
      <point x="28" y="560"/>
      <point x="45" y="578"/>
      <point x="90" y="578" type="curve" smooth="yes"/>
      <point x="104" y="578" type="line" smooth="yes"/>
      <point x="108" y="578"/>
      <point x="110" y="576"/>
      <point x="110" y="572" type="curve" smooth="yes"/>
      <point x="110" y="340" type="line" smooth="yes"/>
      <point x="110" y="334"/>
      <point x="107" y="328"/>
      <point x="101" y="328" type="curve"/>
      <point x="74" y="329" type="line"/>
      <point x="74" y="310" type="line"/>
      <point x="225" y="310" type="line"/>
      <point x="225" y="329" type="line"/>
      <point x="199" y="328" type="line"/>
      <point x="192" y="328"/>
      <point x="189" y="332"/>
      <point x="189" y="339" type="curve" smooth="yes"/>
      <point x="189" y="573" type="line" smooth="yes"/>
      <point x="189" y="576"/>
      <point x="191" y="578"/>
      <point x="195" y="578" type="curve" smooth="yes"/>
      <point x="210" y="578" type="line" smooth="yes"/>
      <point x="254" y="578"/>
      <point x="271" y="560"/>
      <point x="271" y="523" type="curve"/>
      <point x="290" y="523" type="line"/>
      <point x="290" y="597" type="line"/>
      <point x="10" y="597" type="line"/>
      <point x="10" y="523" type="line"/>
    </contour>
    <contour>
      <point x="353" y="572" type="line"/>
      <point x="353" y="339" type="line" smooth="yes"/>
      <point x="353" y="332"/>
      <point x="350" y="328"/>
      <point x="343" y="328" type="curve"/>
      <point x="324" y="329" type="line"/>
      <point x="324" y="310" type="line"/>
      <point x="409" y="310" type="line"/>
      <point x="409" y="329" type="line"/>
      <point x="385" y="328" type="line"/>
      <point x="378" y="328"/>
      <point x="375" y="332"/>
      <point x="375" y="339" type="curve" smooth="yes"/>
      <point x="375" y="567" type="line"/>
    </contour>
    <contour>
      <point x="545" y="391" type="line"/>
      <point x="441" y="597" type="line"/>
      <point x="327" y="597" type="line"/>
      <point x="327" y="577" type="line"/>
      <point x="348" y="578" type="line"/>
      <point x="352" y="578"/>
      <point x="353" y="577"/>
      <point x="353" y="575" type="curve" smooth="yes"/>
      <point x="353" y="563" type="line"/>
      <point x="373" y="567" type="line"/>
      <point x="504" y="305" type="line"/>
    </contour>
    <contour>
      <point x="635" y="565" type="line"/>
      <point x="635" y="339" type="line" smooth="yes"/>
      <point x="635" y="332"/>
      <point x="631" y="328"/>
      <point x="625" y="328" type="curve"/>
      <point x="600" y="329" type="line"/>
      <point x="600" y="310" type="line"/>
      <point x="740" y="310" type="line"/>
      <point x="740" y="329" type="line"/>
      <point x="723" y="328" type="line"/>
      <point x="716" y="328"/>
      <point x="713" y="332"/>
      <point x="713" y="339" type="curve" smooth="yes"/>
      <point x="713" y="568" type="line" smooth="yes"/>
      <point x="713" y="573"/>
      <point x="717" y="578"/>
      <point x="723" y="578" type="curve"/>
      <point x="737" y="577" type="line"/>
      <point x="737" y="597" type="line"/>
      <point x="635" y="597" type="line"/>
    </contour>
    <contour>
      <point x="635" y="597" type="line"/>
      <point x="523" y="359" type="line"/>
      <point x="504" y="305" type="line"/>
      <point x="521" y="305" type="line"/>
      <point x="643" y="564" type="line"/>
    </contour>
  </outline>
</glyph>
<glyph name="partialdiff" format="1">
  <advance width="466"/>
  <unicode hex="2202"/>
  <outline>
    <contour>
      <point x="336" y="306"/>
      <point x="257" y="325"/>
      <point x="206" y="325" type="curve" smooth="yes"/>
      <point x="109" y="325"/>
      <point x="35" y="258"/>
      <point x="35" y="154" type="curve" smooth="yes"/>
      <point x="35" y="27"/>
      <point x="145" y="-11"/>
      <point x="217" y="-11" type="curve" smooth="yes"/>
      <point x="396" y="-11"/>
      <point x="424" y="228"/>
      <point x="424" y="330" type="curve" smooth="yes"/>
      <point x="424" y="510"/>
      <point x="336" y="605"/>
      <point x="219" y="605" type="curve" smooth="yes"/>
      <point x="155" y="605"/>
      <point x="75" y="576"/>
      <point x="75" y="519" type="curve" smooth="yes"/>
      <point x="75" y="488"/>
      <point x="98" y="473"/>
      <point x="123" y="473" type="curve" smooth="yes"/>
      <point x="141" y="473"/>
      <point x="158" y="481"/>
      <point x="158" y="500" type="curve" smooth="yes"/>
      <point x="158" y="514"/>
      <point x="149" y="522"/>
      <point x="149" y="537" type="curve" smooth="yes"/>
      <point x="149" y="564"/>
      <point x="181" y="578"/>
      <point x="212" y="578" type="curve" smooth="yes"/>
      <point x="290" y="578"/>
      <point x="336" y="489"/>
      <point x="336" y="357" type="curve" smooth="yes"/>
      <point x="336" y="258"/>
      <point x="310" y="16"/>
      <point x="203" y="16" type="curve" smooth="yes"/>
      <point x="154" y="16"/>
      <point x="122" y="68"/>
      <point x="122" y="141" type="curve" smooth="yes"/>
      <point x="122" y="234"/>
      <point x="175" y="288"/>
      <point x="239" y="288" type="curve" smooth="yes"/>
      <point x="285" y="288"/>
      <point x="330" y="260"/>
      <point x="349" y="219" type="curve"/>
      <point x="385" y="233" type="line"/>
    </contour>
  </outline>
</glyph>
<glyph name="radical" format="1">
  <advance width="460"/>
  <unicode hex="221A"/>
  <outline>
    <contour>
      <point x="302" y="11" type="line"/>
      <point x="174" y="357" type="line"/>
      <point x="88" y="349" type="line"/>
      <point x="263" y="-95" type="line"/>
    </contour>
    <contour>
      <point x="19" y="306" type="line"/>
      <point x="174" y="357" type="line"/>
      <point x="165" y="382" type="line"/>
      <point x="10" y="331" type="line"/>
    </contour>
    <contour>
      <point x="263" y="-95" type="line"/>
      <point x="290" y="-95" type="line"/>
      <point x="482" y="786" type="line"/>
      <point x="456" y="786" type="line"/>
    </contour>
  </outline>
</glyph>
<glyph name="infinity" format="1">
  <advance width="539"/>
  <unicode hex="221E"/>
  <outline>
    <contour>
      <point x="217" y="420"/>
      <point x="269" y="178"/>
      <point x="112" y="178" type="curve" smooth="yes"/>
      <point x="59" y="178"/>
      <point x="25" y="216"/>
      <point x="25" y="269" type="curve" smooth="yes"/>
      <point x="25" y="321"/>
      <point x="59" y="348"/>
      <point x="121" y="348" type="curve" smooth="yes"/>
      <point x="176" y="348"/>
      <point x="217" y="327"/>
      <point x="245" y="284" type="curve"/>
      <point x="259" y="312" type="line"/>
      <point x="239" y="365"/>
      <point x="187" y="420"/>
      <point x="117" y="420" type="curve" smooth="yes"/>
      <point x="41" y="420"/>
      <point x="0" y="355"/>
      <point x="0" y="274" type="curve" smooth="yes"/>
      <point x="0" y="183"/>
      <point x="51" y="109"/>
      <point x="140" y="109" type="curve" smooth="yes"/>
      <point x="322" y="109"/>
      <point x="270" y="351"/>
      <point x="427" y="351" type="curve" smooth="yes"/>
      <point x="480" y="351"/>
      <point x="514" y="313"/>
      <point x="514" y="261" type="curve" smooth="yes"/>
      <point x="514" y="208"/>
      <point x="480" y="181"/>
      <point x="418" y="181" type="curve" smooth="yes"/>
      <point x="363" y="181"/>
      <point x="322" y="202"/>
      <point x="294" y="245" type="curve"/>
      <point x="280" y="217" type="line"/>
      <point x="300" y="164"/>
      <point x="352" y="109"/>
      <point x="422" y="109" type="curve" smooth="yes"/>
      <point x="498" y="109"/>
      <point x="539" y="174"/>
      <point x="539" y="255" type="curve" smooth="yes"/>
      <point x="539" y="346"/>
      <point x="488" y="420"/>
      <point x="399" y="420" type="curve" smooth="yes"/>
    </contour>
  </outline>
</glyph>
<glyph name="lozenge" format="1">
  <advance width="460"/>
  <unicode hex="25CA"/>
  <outline>
    <contour>
      <point x="451" y="281" type="line"/>
      <point x="242" y="645" type="line"/>
      <point x="214" y="645" type="line"/>
      <point x="9" y="286" type="line"/>
      <point x="218" y="-79" type="line"/>
      <point x="246" y="-79" type="line"/>
    </contour>
    <contour>
      <point x="231" y="-26" type="line"/>
      <point x="211" y="17" type="line"/>
      <point x="59" y="285" type="line"/>
      <point x="208" y="549" type="line"/>
      <point x="229" y="592" type="line"/>
      <point x="249" y="549" type="line"/>
      <point x="401" y="281" type="line"/>
      <point x="252" y="17" type="line"/>
    </contour>
  </outline>
</glyph>
<glyph name="caron.alt" format="1">
  <advance width="320"/>
  <outline>
    <contour>
      <point x="134" y="438" type="line"/>
      <point x="172" y="456"/>
      <point x="208" y="497"/>
      <point x="208" y="545" type="curve" smooth="yes"/>
      <point x="208" y="577"/>
      <point x="186" y="607"/>
      <point x="153" y="607" type="curve" smooth="yes"/>
      <point x="123" y="607"/>
      <point x="110" y="585"/>
      <point x="110" y="564" type="curve" smooth="yes"/>
      <point x="110" y="547"/>
      <point x="122" y="530"/>
      <point x="140" y="530" type="curve" smooth="yes"/>
      <point x="149" y="530"/>
      <point x="158" y="526"/>
      <point x="158" y="511" type="curve" smooth="yes"/>
      <point x="158" y="493"/>
      <point x="140" y="467"/>
      <point x="118" y="451" type="curve"/>
    </contour>
    <contour>
      <point x="145" y="598" type="move" name="_topright"/>
    </contour>
  </outline>
</glyph>
<glyph name="circumflex.narrow" format="1">
  <advance width="340"/>
  <outline>
    <contour>
      <point x="170" y="584" type="line"/>
      <point x="268" y="506" type="line" smooth="yes"/>
      <point x="277" y="499"/>
      <point x="289" y="493"/>
      <point x="297" y="493" type="curve" smooth="yes"/>
      <point x="301" y="493"/>
      <point x="305" y="496"/>
      <point x="305" y="500" type="curve" smooth="yes"/>
      <point x="305" y="503"/>
      <point x="294" y="515"/>
      <point x="279" y="533" type="curve" smooth="yes"/>
      <point x="185" y="644" type="line"/>
      <point x="178" y="653"/>
      <point x="172" y="659"/>
      <point x="170" y="659" type="curve" smooth="yes"/>
      <point x="168" y="659"/>
      <point x="162" y="653"/>
      <point x="155" y="644" type="curve"/>
      <point x="61" y="533" type="line" smooth="yes"/>
      <point x="46" y="515"/>
      <point x="35" y="503"/>
      <point x="35" y="500" type="curve" smooth="yes"/>
      <point x="35" y="496"/>
      <point x="39" y="493"/>
      <point x="43" y="493" type="curve" smooth="yes"/>
      <point x="51" y="493"/>
      <point x="63" y="499"/>
      <point x="72" y="506" type="curve" smooth="yes"/>
    </contour>
    <contour>
      <point x="170" y="420" type="move" name="_top"/>
    </contour>
  </outline>
</glyph>
<glyph name="f.ss01" format="1">
  <advance width="296"/>
  <outline>
    <contour>
      <point x="250" y="0" type="line"/>
      <point x="250" y="26" type="line"/>
      <point x="184" y="24" type="line" smooth="yes"/>
      <point x="175" y="24"/>
      <point x="171" y="30"/>
      <point x="171" y="43" type="curve" smooth="yes"/>
      <point x="171" y="395" type="line"/>
      <point x="277" y="395" type="line"/>
      <point x="277" y="420" type="line"/>
      <point x="170" y="420" type="line"/>
      <point x="170" y="449" type="line" smooth="yes"/>
      <point x="170" y="490"/>
      <point x="164" y="553"/>
      <point x="164" y="589" type="curve" smooth="yes"/>
      <point x="164" y="690"/>
      <point x="197" y="709"/>
      <point x="227" y="709" type="curve" smooth="yes"/>
      <point x="247" y="709"/>
      <point x="257" y="694"/>
      <point x="257" y="677" type="curve" smooth="yes"/>
      <point x="257" y="658"/>
      <point x="248" y="649"/>
      <point x="248" y="633" type="curve" smooth="yes"/>
      <point x="248" y="613"/>
      <point x="262" y="604"/>
      <point x="283" y="604" type="curve" smooth="yes"/>
      <point x="317" y="604"/>
      <point x="331" y="627"/>
      <point x="331" y="653" type="curve" smooth="yes"/>
      <point x="331" y="700"/>
      <point x="285" y="736"/>
      <point x="234" y="736" type="curve" smooth="yes"/>
      <point x="108" y="736"/>
      <point x="85" y="597"/>
      <point x="85" y="486" type="curve" smooth="yes"/>
      <point x="85" y="420" type="line"/>
      <point x="46" y="420" type="line"/>
      <point x="46" y="395" type="line"/>
      <point x="85" y="395" type="line"/>
      <point x="85" y="43" type="line" smooth="yes"/>
      <point x="85" y="30"/>
      <point x="81" y="24"/>
      <point x="72" y="24" type="curve"/>
      <point x="35" y="26" type="line"/>
      <point x="35" y="0" type="line"/>
    </contour>
  </outline>
</glyph>
